<?xml version="1.0" encoding="UTF-8" standalone="no"?>
<!-- Created with Inkscape (http://www.inkscape.org/) -->

<svg
   width="32.364067mm"
   height="27.11998mm"
   viewBox="0 0 32.364067 27.11998"
   version="1.1"
   id="svg5"
   xml:space="preserve"
   xmlns:xlink="http://www.w3.org/1999/xlink"
   xmlns="http://www.w3.org/2000/svg"
   xmlns:svg="http://www.w3.org/2000/svg"><defs
     id="defs2"><linearGradient
       id="linearGradient64214"><stop
         style="stop-color:#83a9c0;stop-opacity:1;"
         offset="0"
         id="stop64204" /><stop
         style="stop-color:#ffa8a9;stop-opacity:1;"
         offset="0.0001"
         id="stop64206" /><stop
         style="stop-color:#faedcd;stop-opacity:1;"
         offset="0.71376812"
         id="stop64208" /><stop
         style="stop-color:#84aac0;stop-opacity:0.79607844;"
         offset="0.97077292"
         id="stop64210" /><stop
         style="stop-color:#83a9c0;stop-opacity:1;"
         offset="1"
         id="stop64212" /></linearGradient><linearGradient
       id="linearGradient34813"><stop
         style="stop-color:#84a9c0;stop-opacity:1;"
         offset="0"
         id="stop34811" /></linearGradient><linearGradient
       xlink:href="#linearGradient64214"
       id="linearGradient76400"
       gradientUnits="userSpaceOnUse"
       gradientTransform="rotate(-105.71821,181.00666,26.830108)"
       x1="39.839314"
       y1="-25.340002"
       x2="76.20224"
       y2="-25.340002" /><linearGradient
       xlink:href="#linearGradient64214"
       id="linearGradient76402"
       gradientUnits="userSpaceOnUse"
       gradientTransform="rotate(-105.71821,181.00666,26.830108)"
       x1="39.839314"
       y1="-25.340002"
       x2="76.20224"
       y2="-25.340002" /><linearGradient
       xlink:href="#linearGradient64214"
       id="linearGradient5115"
       gradientUnits="userSpaceOnUse"
       gradientTransform="rotate(-105.71821,181.00666,26.830108)"
       x1="39.839314"
       y1="-25.340002"
       x2="76.20224"
       y2="-25.340002" /><linearGradient
       xlink:href="#linearGradient64214"
       id="linearGradient5117"
       gradientUnits="userSpaceOnUse"
       gradientTransform="rotate(-105.71821,181.00666,26.830108)"
       x1="39.839314"
       y1="-25.340002"
       x2="76.20224"
       y2="-25.340002" /></defs><g
     id="layer6"
     style="display:none"
     transform="translate(-117.60789,-88.468168)"><g
       id="layer5"
       transform="rotate(-105.71821,110.60388,41.109856)"
       style="fill:#000000;stroke-width:1.0516"><text
         xml:space="preserve"
         style="font-style:normal;font-variant:normal;font-weight:normal;font-stretch:normal;font-size:18.4969px;font-family:Dosis;-inkscape-font-specification:'Dosis, Normal';font-variant-ligatures:normal;font-variant-caps:normal;font-variant-numeric:normal;font-variant-east-asian:normal;text-align:center;text-anchor:middle;display:inline;fill:#000000;fill-opacity:1;stroke-width:0.2;stroke-linecap:square;stroke-linejoin:round;stroke-miterlimit:0;paint-order:markers fill stroke"
         x="54.213722"
         y="-39.769791"
         id="text6785"
         transform="rotate(105.71821)"><tspan
           id="tspan6783"
           style="font-style:normal;font-variant:normal;font-weight:normal;font-stretch:normal;font-size:18.4969px;font-family:Dosis;-inkscape-font-specification:'Dosis, Normal';font-variant-ligatures:normal;font-variant-caps:normal;font-variant-numeric:normal;font-variant-east-asian:normal;fill:#000000;fill-opacity:1;stroke-width:0.2"
           x="54.213722"
           y="-39.769791">Family</tspan></text></g><g
       id="layer7"
       style="display:none"><g
         id="g20918"
         transform="rotate(-105.71821,89.478312,41.545799)"
         style="fill:#000000;stroke-width:1.0516"><rect
           style="font-variation-settings:'wght' 600;display:none;fill:#000000;fill-opacity:0;stroke:none;stroke-width:0.3;stroke-linecap:round;stroke-linejoin:round;stroke-miterlimit:0;stroke-opacity:1;paint-order:stroke fill markers"
           id="rect20904"
           width="67.408096"
           height="24.249119"
           x="17.6926"
           y="-55.711563"
           transform="rotate(105.71821)"
           rx="3.4222419"
           ry="3.8155074" /><text
           xml:space="preserve"
           style="font-style:normal;font-variant:normal;font-weight:normal;font-stretch:normal;font-size:7.614px;font-family:Dosis;-inkscape-font-specification:'Dosis, @wght=400';font-variant-ligatures:normal;font-variant-caps:normal;font-variant-numeric:normal;font-variant-east-asian:normal;font-variation-settings:'wght' 400;text-align:center;letter-spacing:1.651px;text-anchor:middle;fill:#7a408c;fill-opacity:1;stroke:none;stroke-width:0.2;stroke-linecap:square;stroke-linejoin:round;stroke-miterlimit:0;stroke-opacity:1;paint-order:markers fill stroke"
           x="57.270855"
           y="-33.657593"
           id="text20908"
           transform="matrix(-0.27090952,0.96261675,-0.96259463,-0.27090328,0,0)"><tspan
             id="tspan20906"
             x="58.096355"
             y="-33.657593"
             style="fill:#7a408c;fill-opacity:1;stroke:none;stroke-width:0.2;stroke-opacity:1">Time</tspan></text><text
           xml:space="preserve"
           style="font-style:normal;font-variant:normal;font-weight:normal;font-stretch:normal;font-size:18.4966px;font-family:Dosis;-inkscape-font-specification:'Dosis, Normal';font-variant-ligatures:normal;font-variant-caps:normal;font-variant-numeric:normal;font-variant-east-asian:normal;text-align:center;text-anchor:middle;fill:#7a408c;fill-opacity:1;stroke:none;stroke-width:0.200001;stroke-linecap:square;stroke-linejoin:round;stroke-miterlimit:0;stroke-opacity:1;paint-order:markers fill stroke"
           x="54.102421"
           y="-39.712757"
           id="text20912"
           transform="matrix(-0.27090853,0.96261329,-0.9625981,-0.27090426,0,0)"><tspan
             id="tspan20910"
             style="font-style:normal;font-variant:normal;font-weight:normal;font-stretch:normal;font-size:18.4966px;font-family:Dosis;-inkscape-font-specification:'Dosis, Normal';font-variant-ligatures:normal;font-variant-caps:normal;font-variant-numeric:normal;font-variant-east-asian:normal;fill:#7a408c;fill-opacity:1;stroke:none;stroke-width:0.200001;stroke-opacity:1"
             x="54.102421"
             y="-39.712757">Family</tspan></text></g><g
         id="g31328"
         transform="rotate(-105.71821,100.51187,55.419826)"
         style="fill:#000000;stroke-width:1.0516"><rect
           style="font-variation-settings:'wght' 600;display:none;fill:#000000;fill-opacity:0;stroke:none;stroke-width:0.3;stroke-linecap:round;stroke-linejoin:round;stroke-miterlimit:0;stroke-opacity:1;paint-order:stroke fill markers"
           id="rect31306"
           width="67.408096"
           height="24.249119"
           x="17.6926"
           y="-55.711563"
           transform="rotate(105.71821)"
           rx="3.4222419"
           ry="3.8155074" /><text
           xml:space="preserve"
           style="font-style:normal;font-variant:normal;font-weight:normal;font-stretch:normal;font-size:18.4966px;font-family:Dosis;-inkscape-font-specification:'Dosis, Normal';font-variant-ligatures:normal;font-variant-caps:normal;font-variant-numeric:normal;font-variant-east-asian:normal;text-align:center;text-anchor:middle;fill:#7a408c;fill-opacity:1;stroke:none;stroke-width:0.200001;stroke-linecap:square;stroke-linejoin:round;stroke-miterlimit:0;stroke-opacity:1;paint-order:markers fill stroke"
           x="54.102421"
           y="-39.712757"
           id="text31314"
           transform="matrix(-0.27090853,0.96261329,-0.9625981,-0.27090426,0,0)"><tspan
             id="tspan31312"
             style="font-style:normal;font-variant:normal;font-weight:normal;font-stretch:normal;font-size:18.4966px;font-family:Dosis;-inkscape-font-specification:'Dosis, Normal';font-variant-ligatures:normal;font-variant-caps:normal;font-variant-numeric:normal;font-variant-east-asian:normal;fill:#7a408c;fill-opacity:1;stroke:none;stroke-width:0.200001;stroke-opacity:1"
             x="54.102421"
             y="-39.712757">Family</tspan></text></g></g></g><g
     id="g76398"
     transform="matrix(0.55617343,0,0,0.55339805,-31.636546,64.707972)"
     style="stroke-width:1.8025"><rect
       style="font-variation-settings:'wght' 400;display:none;opacity:1;vector-effect:none;fill:#ffffff;fill-opacity:1;stroke:#000000;stroke-width:3.5584;stroke-linecap:round;stroke-linejoin:round;stroke-miterlimit:0;stroke-dasharray:none;stroke-dashoffset:0;stroke-opacity:1;-inkscape-stroke:none;paint-order:stroke fill markers;stop-color:#000000;stop-opacity:1"
       id="rect76372"
       width="74.131393"
       height="66.108513"
       x="49.848621"
       y="-123.35835"
       ry="2.8642881"
       rx="2.8642881" /><g
       id="g76396"
       style="font-variation-settings:'wght' 600;opacity:1;vector-effect:none;fill:none;fill-opacity:1;stroke:none;stroke-width:2.81043;stroke-linecap:round;stroke-linejoin:round;stroke-miterlimit:0;stroke-dasharray:none;stroke-dashoffset:0;stroke-opacity:0.898039;-inkscape-stroke:none;paint-order:stroke fill markers;stop-color:#000000;stop-opacity:1"
       transform="matrix(1.2661376,0,0,1.2661376,-113.31394,-292.06808)"><path
         style="color:#000000;fill:#e9edc9;fill-opacity:1;stroke:none;stroke-width:2.81043;stroke-opacity:1;-inkscape-stroke:none"
         d="m 159.54687,138.32617 c -7.29108,0 -13.22265,5.93157 -13.22265,13.22266 0,7.29109 5.93157,13.22265 13.22265,13.22265 7.29109,0 13.22266,-5.93156 13.22266,-13.22265 0,-7.29109 -5.93157,-13.22266 -13.22266,-13.22266 z m 0,1.97266 c 6.22419,0 11.24805,5.02581 11.24805,11.25 0,6.22418 -5.02386,11.24804 -11.24805,11.24804 -6.22418,0 -11.25,-5.02386 -11.25,-11.24804 0,-6.22419 5.02582,-11.25 11.25,-11.25 z"
         id="path76374" /><path
         style="color:#000000;display:inline;fill:#ec4c6d;fill-opacity:1;stroke:none;stroke-width:4.52823;stroke-opacity:1;-inkscape-stroke:none"
         d="m 147.64453,149.08789 c -7.29109,0 -13.22266,5.93157 -13.22266,13.22266 0,7.29108 5.93157,13.22265 13.22266,13.22265 7.29109,0 13.22266,-5.93157 13.22266,-13.22265 0,-7.29109 -5.93157,-13.22266 -13.22266,-13.22266 z m 0,1.97461 c 6.22419,0 11.24805,5.02386 11.24805,11.24805 0,6.22418 -5.02386,11.24804 -11.24805,11.24804 -6.22418,0 -11.25,-5.02386 -11.25,-11.24804 0,-6.22419 5.02582,-11.24805 11.25,-11.24805 z"
         id="path76376" /><path
         style="color:#000000;display:inline;fill:#388697;fill-opacity:0.960784;stroke:none;stroke-width:4.52823;stroke-opacity:1;-inkscape-stroke:none"
         d="m 167.1582,150.34961 c -7.29109,0 -13.22265,5.93157 -13.22265,13.22266 0,2.0124 0.44505,3.93167 1.26172,5.64453 -0.10239,-0.21475 -0.0281,-0.16458 -0.0684,0.0176 -0.0403,0.18216 -0.13896,0.47529 -0.28321,0.81055 -0.28849,0.67053 -0.75061,1.52238 -1.22656,2.33985 -0.47595,0.81746 -0.96695,1.60531 -1.33008,2.19335 -0.18156,0.29403 -0.32872,0.53437 -0.4375,0.72461 -0.0544,0.0951 -0.0967,0.1683 -0.14648,0.28125 -0.0249,0.0565 -0.0616,0.0923 -0.0918,0.3086 -0.008,0.0541 -0.0146,0.12288 -0.006,0.22656 0.004,0.0518 0.0131,0.11366 0.0332,0.18555 0.0201,0.0719 0.10513,0.24356 0.10547,0.24414 3.5e-4,5.7e-4 0.22218,0.25742 0.22266,0.25781 4.8e-4,3.9e-4 0.31189,0.17167 0.3125,0.17188 6.1e-4,2e-4 0.28831,0.0527 0.28906,0.0527 7.5e-4,2e-5 0.15302,-0.007 0.21094,-0.0176 1.11374,-0.20871 6.40459,-0.5681 8.625,-0.52539 2.27344,0.0437 3.68314,0.30664 5.75195,0.30664 7.2911,0 13.22266,-5.93156 13.22266,-13.22265 0,-7.29109 -5.93157,-13.22266 -13.22266,-13.22266 z m 0,1.97461 c 6.22418,0 11.24805,5.02386 11.24805,11.24805 0,6.22419 -5.02385,11.25 -11.24805,11.25 -1.89505,0 -3.30757,-0.26042 -5.71289,-0.30665 -1.92646,-0.0371 -4.87725,0.21056 -7.07422,0.4375 0.30299,-0.49111 0.60622,-0.97503 0.95508,-1.57421 0.49565,-0.85131 0.98449,-1.74497 1.33203,-2.55274 0.17378,-0.40388 0.31437,-0.78412 0.39844,-1.16406 0.0841,-0.37994 0.1667,-0.78143 -0.0781,-1.29492 -0.69038,-1.44798 -1.06836,-3.07325 -1.06836,-4.79492 0,-6.22419 5.02385,-11.24805 11.24804,-11.24805 z m -14.5332,22.73242 c -5e-5,0 0.0171,0.003 0.0195,0.004 -0.046,0.008 -0.18448,0.006 -0.22656,0.0137 0.0562,-0.0105 0.20778,-0.0176 0.20703,-0.0176 z"
         id="path76378" /><path
         id="path76380"
         style="color:#000000;display:none;fill:url(#linearGradient5115);fill-opacity:0.898039;stroke:none;stroke-width:2.81043;stroke-opacity:1;-inkscape-stroke:none"
         d="m 146.45256,153.39425 2.05517,0.33745 c -0.13821,-0.70592 -0.21084,-1.43568 -0.21084,-2.18281 0,-1.29151 0.21688,-2.53144 0.61547,-3.68556 l -1.98644,-0.262 c -0.39087,1.24709 -0.60152,2.57325 -0.60152,3.94756 0,0.62623 0.0435,1.24209 0.12816,1.84536 z" /><path
         id="path76382"
         style="color:#000000;display:inline;fill:#e9edc9;fill-opacity:1;stroke:none;stroke-width:2.81043;stroke-opacity:1;-inkscape-stroke:none"
         d="m 159.54685,138.32592 c -5.91676,0 -10.93814,3.90637 -12.62093,9.27541 l 1.98644,0.262 c 1.52232,-4.40794 5.70183,-7.5644 10.63449,-7.5644 6.22418,0 11.24789,5.02578 11.24789,11.24996 0,6.22417 -5.02371,11.24789 -11.24789,11.24789 -5.47704,0 -10.02592,-3.89009 -11.03912,-9.06508 l -2.05517,-0.33745 c 0.90057,6.42055 6.42944,11.37709 13.09429,11.37709 7.29108,0 13.22245,-5.93137 13.22245,-13.22245 0,-7.29108 -5.93137,-13.22297 -13.22245,-13.22297 z" /><path
         id="path76384"
         style="color:#000000;display:none;fill:url(#linearGradient5117);fill-opacity:0.898039;stroke:none;stroke-width:2.81043;stroke-opacity:1;-inkscape-stroke:none"
         d="m 160.80931,161.07337 -1.97353,0.0966 c 0.0376,0.37502 0.0568,0.75537 0.0568,1.1405 0,1.30291 -0.22008,2.5534 -0.62529,3.71605 l 1.97973,0.28939 c 0.4026,-1.26395 0.62011,-2.6098 0.62011,-4.00544 0,-0.41714 -0.0199,-0.82976 -0.0579,-1.23714 z" /><path
         id="path76386"
         style="color:#000000;display:inline;fill:#ee4266;fill-opacity:0.898039;stroke:none;stroke-width:4.52823;stroke-opacity:1;-inkscape-stroke:none"
         d="m 147.64473,149.08806 c -7.29108,0 -13.22296,5.93136 -13.22296,13.22245 0,7.29107 5.93188,13.22244 13.22296,13.22244 5.89544,0 10.90165,-3.87787 12.60234,-9.217 l -1.97973,-0.28939 c -1.53054,4.39146 -5.70133,7.53184 -10.62261,7.53184 -6.22417,0 -11.24995,-5.02372 -11.24995,-11.24789 0,-6.22419 5.02578,-11.2479 11.24995,-11.2479 5.83907,0 10.62155,4.42142 11.19105,10.1074 l 1.97353,-0.0966 c -0.62577,-6.71318 -6.29063,-11.98531 -13.16458,-11.98531 z" /><path
         id="path76388"
         style="color:#000000;display:inline;fill:#388697;fill-opacity:0.960784;stroke:none;stroke-width:4.52823;stroke-opacity:1;-inkscape-stroke:none"
         d="m 157.33665,158.07769 -1.28313,-1.6769 c -1.33962,2.06719 -2.11821,4.53028 -2.11821,7.17165 0,1.96589 0.42516,3.84272 1.20612,5.52525 0.002,0.0256 0.002,0.0726 -0.0124,0.13694 -0.0403,0.18216 -0.13893,0.47503 -0.28318,0.81029 -0.28849,0.67053 -0.75085,1.52244 -1.2268,2.33991 -0.47595,0.81746 -0.96702,1.60512 -1.33015,2.19314 -0.18156,0.29403 -0.32841,0.53478 -0.43719,0.72502 -0.0544,0.0951 -0.097,0.16817 -0.14676,0.28112 -0.0249,0.0565 -0.0613,0.0922 -0.0915,0.30851 -0.008,0.0541 -0.015,0.12267 -0.006,0.22635 0.004,0.0518 0.013,0.11362 0.0331,0.18551 0.0201,0.0719 0.10508,0.24385 0.10542,0.24443 3.5e-4,5.7e-4 0.22224,0.25748 0.22272,0.25787 4.8e-4,3.9e-4 0.31203,0.17135 0.31264,0.17156 6.1e-4,2e-4 0.28813,0.0527 0.28888,0.0527 7.5e-4,2e-5 0.15292,-0.007 0.21084,-0.0176 1.11372,-0.20871 6.4049,-0.56774 8.62531,-0.52503 2.27344,0.0437 3.68329,0.30644 5.7521,0.30644 7.2911,0 13.22245,-5.93136 13.22245,-13.22245 0,-4.27051 -2.03511,-8.07492 -5.18625,-10.49393 l -0.85576,1.82728 c 2.48676,2.06116 4.06745,5.17521 4.06745,8.66665 0,6.22419 -5.02369,11.24996 -11.24789,11.24996 -1.89505,0 -3.30751,-0.26072 -5.71283,-0.30695 -1.92646,-0.0371 -4.87753,0.21076 -7.0745,0.4377 0.30299,-0.49111 0.60612,-0.97489 0.95498,-1.57407 0.49565,-0.85131 0.98468,-1.74506 1.33222,-2.55281 0.17378,-0.40388 0.31435,-0.78433 0.39842,-1.16427 0.0841,-0.37994 0.16674,-0.78153 -0.078,-1.29502 -0.69038,-1.44796 -1.06815,-3.07287 -1.06815,-4.79454 0,-1.99732 0.51797,-3.87093 1.42627,-5.49475 z m -4.71186,16.97881 c -5e-5,0 0.0172,0.003 0.0196,0.004 -0.046,0.008 -0.18426,0.006 -0.22634,0.0139 0.0562,-0.0105 0.20745,-0.0181 0.2067,-0.0181 z" /><path
         id="path76390"
         style="color:#000000;display:none;fill:#8fb0c2;stroke:none;stroke-width:2.81043;stroke-opacity:1;-inkscape-stroke:none"
         d="m 159.40474,155.4148 -1.13378,-1.62574 c -0.84658,0.76974 -1.5928,1.64785 -2.21744,2.61173 l 1.28313,1.6769 c 0.55375,-0.98997 1.25233,-1.88735 2.06809,-2.66289 z" /><path
         id="path76392"
         style="color:#000000;display:inline;fill:#388697;fill-opacity:0.960784;stroke:none;stroke-width:4.52823;stroke-opacity:1;-inkscape-stroke:none"
         d="m 167.15827,150.34948 c -3.41809,0 -6.5378,1.30333 -8.88731,3.43958 l 1.13378,1.62574 c 2.01594,-1.91654 4.74436,-3.09076 7.75353,-3.09076 0.47774,0 0.94838,0.0299 1.41025,0.0873 l -0.0491,-1.99213 c -0.44763,-0.046 -0.90158,-0.0698 -1.36116,-0.0698 z" /><path
         id="path76394"
         style="color:#000000;display:none;fill:#8fb0c2;stroke:none;stroke-width:2.81043;stroke-opacity:1;-inkscape-stroke:none"
         d="m 168.51943,150.41924 0.0491,1.99213 c 2.18007,0.27125 4.16409,1.1632 5.77019,2.49442 l 0.85576,-1.82728 c -1.88969,-1.45064 -4.18065,-2.403 -6.67504,-2.65927 z" /></g><g
       id="g777"
       style="font-variation-settings:'wght' 600;opacity:1;vector-effect:none;fill:none;fill-opacity:1;stroke:none;stroke-width:2.81043;stroke-linecap:round;stroke-linejoin:round;stroke-miterlimit:0;stroke-dasharray:none;stroke-dashoffset:0;stroke-opacity:0.898039;-inkscape-stroke:none;paint-order:stroke fill markers;stop-color:#000000;stop-opacity:1"
       transform="matrix(1.2661376,0,0,1.2661376,-113.31394,-292.06808)"><path
         style="color:#000000;fill:#e9edc9;fill-opacity:1;stroke:none;stroke-width:2.81043;stroke-opacity:1;-inkscape-stroke:none"
         d="m 159.54687,138.32617 c -7.29108,0 -13.22265,5.93157 -13.22265,13.22266 0,7.29109 5.93157,13.22265 13.22265,13.22265 7.29109,0 13.22266,-5.93156 13.22266,-13.22265 0,-7.29109 -5.93157,-13.22266 -13.22266,-13.22266 z m 0,1.97266 c 6.22419,0 11.24805,5.02581 11.24805,11.25 0,6.22418 -5.02386,11.24804 -11.24805,11.24804 -6.22418,0 -11.25,-5.02386 -11.25,-11.24804 0,-6.22419 5.02582,-11.25 11.25,-11.25 z"
         id="path755" /><path
         style="color:#000000;display:inline;fill:#ec4c6d;fill-opacity:1;stroke:none;stroke-width:4.52823;stroke-opacity:1;-inkscape-stroke:none"
         d="m 147.64453,149.08789 c -7.29109,0 -13.22266,5.93157 -13.22266,13.22266 0,7.29108 5.93157,13.22265 13.22266,13.22265 7.29109,0 13.22266,-5.93157 13.22266,-13.22265 0,-7.29109 -5.93157,-13.22266 -13.22266,-13.22266 z m 0,1.97461 c 6.22419,0 11.24805,5.02386 11.24805,11.24805 0,6.22418 -5.02386,11.24804 -11.24805,11.24804 -6.22418,0 -11.25,-5.02386 -11.25,-11.24804 0,-6.22419 5.02582,-11.24805 11.25,-11.24805 z"
         id="path757" /><path
         style="color:#000000;display:inline;fill:#388697;fill-opacity:0.960784;stroke:none;stroke-width:4.52823;stroke-opacity:1;-inkscape-stroke:none"
         d="m 167.1582,150.34961 c -7.29109,0 -13.22265,5.93157 -13.22265,13.22266 0,2.0124 0.44505,3.93167 1.26172,5.64453 -0.10239,-0.21475 -0.0281,-0.16458 -0.0684,0.0176 -0.0403,0.18216 -0.13896,0.47529 -0.28321,0.81055 -0.28849,0.67053 -0.75061,1.52238 -1.22656,2.33985 -0.47595,0.81746 -0.96695,1.60531 -1.33008,2.19335 -0.18156,0.29403 -0.32872,0.53437 -0.4375,0.72461 -0.0544,0.0951 -0.0967,0.1683 -0.14648,0.28125 -0.0249,0.0565 -0.0616,0.0923 -0.0918,0.3086 -0.008,0.0541 -0.0146,0.12288 -0.006,0.22656 0.004,0.0518 0.0131,0.11366 0.0332,0.18555 0.0201,0.0719 0.10513,0.24356 0.10547,0.24414 3.5e-4,5.7e-4 0.22218,0.25742 0.22266,0.25781 4.8e-4,3.9e-4 0.31189,0.17167 0.3125,0.17188 6.1e-4,2e-4 0.28831,0.0527 0.28906,0.0527 7.5e-4,2e-5 0.15302,-0.007 0.21094,-0.0176 1.11374,-0.20871 6.40459,-0.5681 8.625,-0.52539 2.27344,0.0437 3.68314,0.30664 5.75195,0.30664 7.2911,0 13.22266,-5.93156 13.22266,-13.22265 0,-7.29109 -5.93157,-13.22266 -13.22266,-13.22266 z m 0,1.97461 c 6.22418,0 11.24805,5.02386 11.24805,11.24805 0,6.22419 -5.02385,11.25 -11.24805,11.25 -1.89505,0 -3.30757,-0.26042 -5.71289,-0.30665 -1.92646,-0.0371 -4.87725,0.21056 -7.07422,0.4375 0.30299,-0.49111 0.60622,-0.97503 0.95508,-1.57421 0.49565,-0.85131 0.98449,-1.74497 1.33203,-2.55274 0.17378,-0.40388 0.31437,-0.78412 0.39844,-1.16406 0.0841,-0.37994 0.1667,-0.78143 -0.0781,-1.29492 -0.69038,-1.44798 -1.06836,-3.07325 -1.06836,-4.79492 0,-6.22419 5.02385,-11.24805 11.24804,-11.24805 z m -14.5332,22.73242 c -5e-5,0 0.0171,0.003 0.0195,0.004 -0.046,0.008 -0.18448,0.006 -0.22656,0.0137 0.0562,-0.0105 0.20778,-0.0176 0.20703,-0.0176 z"
         id="path759" /><path
         id="path761"
         style="color:#000000;display:none;fill:url(#linearGradient76400);fill-opacity:0.898039;stroke:none;stroke-width:2.81043;stroke-opacity:1;-inkscape-stroke:none"
         d="m 146.45256,153.39425 2.05517,0.33745 c -0.13821,-0.70592 -0.21084,-1.43568 -0.21084,-2.18281 0,-1.29151 0.21688,-2.53144 0.61547,-3.68556 l -1.98644,-0.262 c -0.39087,1.24709 -0.60152,2.57325 -0.60152,3.94756 0,0.62623 0.0435,1.24209 0.12816,1.84536 z" /><path
         id="path763"
         style="color:#000000;display:inline;fill:#e9edc9;fill-opacity:1;stroke:none;stroke-width:2.81043;stroke-opacity:1;-inkscape-stroke:none"
         d="m 159.54685,138.32592 c -5.91676,0 -10.93814,3.90637 -12.62093,9.27541 l 1.98644,0.262 c 1.52232,-4.40794 5.70183,-7.5644 10.63449,-7.5644 6.22418,0 11.24789,5.02578 11.24789,11.24996 0,6.22417 -5.02371,11.24789 -11.24789,11.24789 -5.47704,0 -10.02592,-3.89009 -11.03912,-9.06508 l -2.05517,-0.33745 c 0.90057,6.42055 6.42944,11.37709 13.09429,11.37709 7.29108,0 13.22245,-5.93137 13.22245,-13.22245 0,-7.29108 -5.93137,-13.22297 -13.22245,-13.22297 z" /><path
         id="path765"
         style="color:#000000;display:none;fill:url(#linearGradient76402);fill-opacity:0.898039;stroke:none;stroke-width:2.81043;stroke-opacity:1;-inkscape-stroke:none"
         d="m 160.80931,161.07337 -1.97353,0.0966 c 0.0376,0.37502 0.0568,0.75537 0.0568,1.1405 0,1.30291 -0.22008,2.5534 -0.62529,3.71605 l 1.97973,0.28939 c 0.4026,-1.26395 0.62011,-2.6098 0.62011,-4.00544 0,-0.41714 -0.0199,-0.82976 -0.0579,-1.23714 z" /><path
         id="path767"
         style="color:#000000;display:inline;fill:#ee4266;fill-opacity:0.898039;stroke:none;stroke-width:4.52823;stroke-opacity:1;-inkscape-stroke:none"
         d="m 147.64473,149.08806 c -7.29108,0 -13.22296,5.93136 -13.22296,13.22245 0,7.29107 5.93188,13.22244 13.22296,13.22244 5.89544,0 10.90165,-3.87787 12.60234,-9.217 l -1.97973,-0.28939 c -1.53054,4.39146 -5.70133,7.53184 -10.62261,7.53184 -6.22417,0 -11.24995,-5.02372 -11.24995,-11.24789 0,-6.22419 5.02578,-11.2479 11.24995,-11.2479 5.83907,0 10.62155,4.42142 11.19105,10.1074 l 1.97353,-0.0966 c -0.62577,-6.71318 -6.29063,-11.98531 -13.16458,-11.98531 z" /><path
         id="path769"
         style="color:#000000;display:inline;fill:#388697;fill-opacity:0.960784;stroke:none;stroke-width:4.52823;stroke-opacity:1;-inkscape-stroke:none"
         d="m 157.33665,158.07769 -1.28313,-1.6769 c -1.33962,2.06719 -2.11821,4.53028 -2.11821,7.17165 0,1.96589 0.42516,3.84272 1.20612,5.52525 0.002,0.0256 0.002,0.0726 -0.0124,0.13694 -0.0403,0.18216 -0.13893,0.47503 -0.28318,0.81029 -0.28849,0.67053 -0.75085,1.52244 -1.2268,2.33991 -0.47595,0.81746 -0.96702,1.60512 -1.33015,2.19314 -0.18156,0.29403 -0.32841,0.53478 -0.43719,0.72502 -0.0544,0.0951 -0.097,0.16817 -0.14676,0.28112 -0.0249,0.0565 -0.0613,0.0922 -0.0915,0.30851 -0.008,0.0541 -0.015,0.12267 -0.006,0.22635 0.004,0.0518 0.013,0.11362 0.0331,0.18551 0.0201,0.0719 0.10508,0.24385 0.10542,0.24443 3.5e-4,5.7e-4 0.22224,0.25748 0.22272,0.25787 4.8e-4,3.9e-4 0.31203,0.17135 0.31264,0.17156 6.1e-4,2e-4 0.28813,0.0527 0.28888,0.0527 7.5e-4,2e-5 0.15292,-0.007 0.21084,-0.0176 1.11372,-0.20871 6.4049,-0.56774 8.62531,-0.52503 2.27344,0.0437 3.68329,0.30644 5.7521,0.30644 7.2911,0 13.22245,-5.93136 13.22245,-13.22245 0,-4.27051 -2.03511,-8.07492 -5.18625,-10.49393 l -0.85576,1.82728 c 2.48676,2.06116 4.06745,5.17521 4.06745,8.66665 0,6.22419 -5.02369,11.24996 -11.24789,11.24996 -1.89505,0 -3.30751,-0.26072 -5.71283,-0.30695 -1.92646,-0.0371 -4.87753,0.21076 -7.0745,0.4377 0.30299,-0.49111 0.60612,-0.97489 0.95498,-1.57407 0.49565,-0.85131 0.98468,-1.74506 1.33222,-2.55281 0.17378,-0.40388 0.31435,-0.78433 0.39842,-1.16427 0.0841,-0.37994 0.16674,-0.78153 -0.078,-1.29502 -0.69038,-1.44796 -1.06815,-3.07287 -1.06815,-4.79454 0,-1.99732 0.51797,-3.87093 1.42627,-5.49475 z m -4.71186,16.97881 c -5e-5,0 0.0172,0.003 0.0196,0.004 -0.046,0.008 -0.18426,0.006 -0.22634,0.0139 0.0562,-0.0105 0.20745,-0.0181 0.2067,-0.0181 z" /><path
         id="path771"
         style="color:#000000;display:none;fill:#8fb0c2;stroke:none;stroke-width:2.81043;stroke-opacity:1;-inkscape-stroke:none"
         d="m 159.40474,155.4148 -1.13378,-1.62574 c -0.84658,0.76974 -1.5928,1.64785 -2.21744,2.61173 l 1.28313,1.6769 c 0.55375,-0.98997 1.25233,-1.88735 2.06809,-2.66289 z" /><path
         id="path773"
         style="color:#000000;display:inline;fill:#388697;fill-opacity:0.960784;stroke:none;stroke-width:4.52823;stroke-opacity:1;-inkscape-stroke:none"
         d="m 167.15827,150.34948 c -3.41809,0 -6.5378,1.30333 -8.88731,3.43958 l 1.13378,1.62574 c 2.01594,-1.91654 4.74436,-3.09076 7.75353,-3.09076 0.47774,0 0.94838,0.0299 1.41025,0.0873 l -0.0491,-1.99213 c -0.44763,-0.046 -0.90158,-0.0698 -1.36116,-0.0698 z" /><path
         id="path775"
         style="color:#000000;display:none;fill:#8fb0c2;stroke:none;stroke-width:2.81043;stroke-opacity:1;-inkscape-stroke:none"
         d="m 168.51943,150.41924 0.0491,1.99213 c 2.18007,0.27125 4.16409,1.1632 5.77019,2.49442 l 0.85576,-1.82728 c -1.88969,-1.45064 -4.18065,-2.403 -6.67504,-2.65927 z" /></g></g></svg>
