<?xml version="1.0" encoding="UTF-8" standalone="no"?>
<!-- Created with Inkscape (http://www.inkscape.org/) -->

<svg
   width="148.7955mm"
   height="49.006271mm"
   viewBox="0 0 148.7955 49.006271"
   version="1.1"
   id="svg5"
   xml:space="preserve"
   sodipodi:docname="Logo-1.svg"
   inkscape:version="1.2.2 (732a01da63, 2022-12-09)"
   xmlns:inkscape="http://www.inkscape.org/namespaces/inkscape"
   xmlns:sodipodi="http://sodipodi.sourceforge.net/DTD/sodipodi-0.dtd"
   xmlns:xlink="http://www.w3.org/1999/xlink"
   xmlns="http://www.w3.org/2000/svg"
   xmlns:svg="http://www.w3.org/2000/svg"><sodipodi:namedview
     id="namedview7"
     pagecolor="#ffffff"
     bordercolor="#000000"
     borderopacity="0.25"
     inkscape:showpageshadow="2"
     inkscape:pageopacity="0.0"
     inkscape:pagecheckerboard="0"
     inkscape:deskcolor="#d1d1d1"
     inkscape:document-units="mm"
     showgrid="false"
     inkscape:zoom="0.5946522"
     inkscape:cx="735.72418"
     inkscape:cy="679.38872"
     inkscape:window-width="1920"
     inkscape:window-height="1094"
     inkscape:window-x="-11"
     inkscape:window-y="-11"
     inkscape:window-maximized="1"
     inkscape:current-layer="g70688"
     showguides="false"><sodipodi:guide
       position="124.15361,56.300049"
       orientation="0,-1"
       id="guide1007"
       inkscape:locked="false" /><sodipodi:guide
       position="130.73692,29.269639"
       orientation="0,-1"
       id="guide1009"
       inkscape:locked="false" /><sodipodi:guide
       position="147.06791,52.073149"
       orientation="1,0"
       id="guide2020"
       inkscape:locked="false" /></sodipodi:namedview><defs
     id="defs2"><linearGradient
       inkscape:collect="always"
       id="linearGradient64214"><stop
         style="stop-color:#83a9c0;stop-opacity:1;"
         offset="0"
         id="stop64204" /><stop
         style="stop-color:#ffa8a9;stop-opacity:1;"
         offset="0.0001"
         id="stop64206" /><stop
         style="stop-color:#faedcd;stop-opacity:1;"
         offset="0.71376812"
         id="stop64208" /><stop
         style="stop-color:#84aac0;stop-opacity:0.79607844;"
         offset="0.97077292"
         id="stop64210" /><stop
         style="stop-color:#83a9c0;stop-opacity:1;"
         offset="1"
         id="stop64212" /></linearGradient><linearGradient
       inkscape:collect="always"
       id="linearGradient41143"><stop
         style="stop-color:#84a9c0;stop-opacity:1;"
         offset="0"
         id="stop41139" /><stop
         style="stop-color:#84a9c0;stop-opacity:0.90196079;"
         offset="0.442029"
         id="stop41145" /><stop
         style="stop-color:#faedd8;stop-opacity:1;"
         offset="0.442029"
         id="stop41141" /></linearGradient><linearGradient
       inkscape:collect="always"
       id="linearGradient38297"><stop
         style="stop-color:#83a9c0;stop-opacity:1;"
         offset="0"
         id="stop38293" /><stop
         style="stop-color:#ffa8a9;stop-opacity:1;"
         offset="0.35688406"
         id="stop39029" /><stop
         style="stop-color:#faedcd;stop-opacity:1;"
         offset="0.71376812"
         id="stop38301" /><stop
         style="stop-color:#84aac0;stop-opacity:0.79607844;"
         offset="0.85688406"
         id="stop39757" /><stop
         style="stop-color:#83a9c0;stop-opacity:0;"
         offset="1"
         id="stop38295" /></linearGradient><linearGradient
       inkscape:collect="always"
       id="linearGradient35197"><stop
         style="stop-color:#84a9c0;stop-opacity:1;"
         offset="0.52536231"
         id="stop35193" /><stop
         style="stop-color:#d9a8b0;stop-opacity:0.89803922;"
         offset="0.52536231"
         id="stop35195" /></linearGradient><linearGradient
       id="linearGradient34813"
       inkscape:swatch="solid"><stop
         style="stop-color:#84a9c0;stop-opacity:1;"
         offset="0"
         id="stop34811" /></linearGradient><linearGradient
       inkscape:collect="always"
       xlink:href="#linearGradient41143"
       id="linearGradient35199"
       x1="-42.956799"
       y1="-41.235142"
       x2="-35.85376"
       y2="-41.235142"
       gradientUnits="userSpaceOnUse"
       gradientTransform="translate(118.44325,178.77339)" /><linearGradient
       inkscape:collect="always"
       xlink:href="#linearGradient35197"
       id="linearGradient35201"
       x1="-44.657291"
       y1="-41.275486"
       x2="-34.290409"
       y2="-41.275486"
       gradientUnits="userSpaceOnUse"
       gradientTransform="translate(-39.632687,-96.303104)" /><linearGradient
       inkscape:collect="always"
       xlink:href="#linearGradient38297"
       id="linearGradient55232"
       gradientUnits="userSpaceOnUse"
       x1="39.839314"
       y1="-25.340002"
       x2="76.20224"
       y2="-25.340002"
       gradientTransform="translate(49.418426,-21.717786)" /><linearGradient
       inkscape:collect="always"
       xlink:href="#linearGradient38297"
       id="linearGradient65280"
       gradientUnits="userSpaceOnUse"
       gradientTransform="translate(103.43867,-12.061524)"
       x1="39.839314"
       y1="-25.340002"
       x2="76.20224"
       y2="-25.340002" /><linearGradient
       inkscape:collect="always"
       xlink:href="#linearGradient38297"
       id="linearGradient65282"
       gradientUnits="userSpaceOnUse"
       gradientTransform="translate(48.194847,-73.664292)"
       x1="39.839314"
       y1="-25.340002"
       x2="76.20224"
       y2="-25.340002" /><linearGradient
       inkscape:collect="always"
       xlink:href="#linearGradient38297"
       id="linearGradient65284"
       gradientUnits="userSpaceOnUse"
       gradientTransform="translate(48.194847,-73.664292)"
       x1="39.839314"
       y1="-25.340002"
       x2="76.20224"
       y2="-25.340002" /><linearGradient
       inkscape:collect="always"
       xlink:href="#linearGradient38297"
       id="linearGradient65286"
       gradientUnits="userSpaceOnUse"
       gradientTransform="translate(99.753901,-8.8229695)"
       x1="39.839314"
       y1="-25.340002"
       x2="76.20224"
       y2="-25.340002" /><linearGradient
       inkscape:collect="always"
       xlink:href="#linearGradient64214"
       id="linearGradient844"
       gradientUnits="userSpaceOnUse"
       gradientTransform="rotate(-105.71821,181.00666,26.830108)"
       x1="39.839314"
       y1="-25.340002"
       x2="76.20224"
       y2="-25.340002" /></defs><g
     inkscape:groupmode="layer"
     id="layer6"
     inkscape:label="Others"
     style="display:none"
     sodipodi:insensitive="true"
     transform="translate(-28.460108,-142.99986)"><g
       inkscape:label="Colour-2-LeftAlign"
       inkscape:groupmode="layer"
       id="g415"
       transform="translate(116.07389,119.98871)"
       style="display:none"><g
         inkscape:groupmode="layer"
         id="g397"
         inkscape:label="Feet"
         transform="rotate(-105.71821,46.626917,18.629118)"><g
           inkscape:groupmode="layer"
           id="g387"
           inkscape:label="Right Foot"
           style="fill:#ffa8a9;fill-opacity:1"
           transform="translate(-1.0625e-6)"><path
             id="path381"
             style="fill:#ffa8a9;fill-opacity:1;stroke:none;stroke-width:0.3;stroke-dasharray:none;stroke-opacity:1"
             d="m 19.500489,28.181434 c 0.283797,-0.09066 0.479275,0.368663 0.24143,0.567281 -0.166407,0.138964 -0.406925,-0.02239 -0.414866,-0.278313 -0.0037,-0.118868 0.08061,-0.259315 0.173436,-0.288968 z m 0.73488,0.06133 c 0.12886,-0.07991 0.322871,-0.01236 0.401418,0.139774 0.02086,0.04045 0.04048,0.123764 0.04358,0.185163 0.01306,0.260998 -0.258126,0.434802 -0.460376,0.295054 -0.208575,-0.144136 -0.200076,-0.486369 0.01541,-0.619994 z m 0.749571,-0.36377 c 0.124917,-0.03117 0.205815,-0.01015 0.322543,0.08381 0.16439,0.132332 0.217508,0.35029 0.124831,0.512135 -0.175433,0.306381 -0.663227,0.03952 -0.63399,-0.346845 0.01063,-0.14041 0.0703,-0.220069 0.186604,-0.249107 z m 1.107483,-1.456157 c 0.138785,-0.119431 0.300571,-0.157025 0.52025,-0.120892 0.285393,0.04694 0.507464,0.236089 0.569234,0.484843 0.07337,0.295519 -0.07089,0.519176 -0.381969,0.592163 -0.404865,0.09502 -0.905968,-0.293214 -0.856125,-0.663257 0.01451,-0.107683 0.07735,-0.231536 0.148606,-0.292856 z m -0.420773,0.978782 c 0.110537,-0.04906 0.206063,-0.02844 0.357412,0.0771 0.217174,0.15169 0.280572,0.311006 0.204186,0.514583 -0.0682,0.18182 -0.228773,0.24079 -0.426899,0.156806 -0.218032,-0.09248 -0.363202,-0.314228 -0.324524,-0.49585 0.0223,-0.104744 0.105225,-0.215094 0.189825,-0.252632 z m -3.826497,-3.117555 c 0.240105,-0.197586 0.620019,-0.208017 0.883306,-0.02425 0.105555,0.07366 0.413164,0.341055 0.664402,0.577559 0.103868,0.0978 0.284569,0.241941 0.435379,0.347354 0.310626,0.217067 0.503907,0.302249 0.688989,0.303449 0.06631,4.35e-4 0.162631,7.85e-4 0.214012,8.09e-4 0.163285,6.9e-5 0.383104,0.07958 0.55758,0.201666 0.246195,0.172453 0.372277,0.359806 0.416221,0.619242 0.05242,0.30942 -0.03798,0.575878 -0.318163,0.937914 -0.461577,0.596422 -1.03404,0.823474 -1.693968,0.67188 -0.285526,-0.06558 -0.446815,-0.139272 -0.721929,-0.329815 -0.322196,-0.22315 -0.564339,-0.474665 -0.796425,-0.827276 -0.09851,-0.149678 -0.260229,-0.473906 -0.325728,-0.653051 -0.02179,-0.05967 -0.05747,-0.140777 -0.07924,-0.180246 -0.0626,-0.113501 -0.162526,-0.427359 -0.194294,-0.610246 -0.03445,-0.198492 -0.03418,-0.41359 7.83e-4,-0.580756 0.03095,-0.147957 0.158462,-0.363218 0.269083,-0.454246 z" /></g><g
           inkscape:groupmode="layer"
           id="g395"
           inkscape:label="Left Foot"
           style="fill:#ffa8a9;fill-opacity:1"
           transform="translate(-1.0625e-6)"><path
             id="path389"
             style="fill:#84a9c0;fill-opacity:1;stroke:none;stroke-width:0.3;stroke-dasharray:none;stroke-opacity:1"
             d="m 21.149585,21.514497 c 0.07901,-0.01761 0.274093,0.03373 0.352027,0.09263 0.04096,0.03096 0.110093,0.108023 0.153621,0.171251 0.07273,0.105651 0.0777,0.123153 0.06132,0.216089 -0.01461,0.08291 -0.0328,0.113227 -0.100987,0.168332 -0.104001,0.08404 -0.18823,0.103115 -0.329671,0.07463 -0.280103,-0.05641 -0.499426,-0.358864 -0.391418,-0.53977 0.03943,-0.06604 0.178904,-0.166179 0.255107,-0.183156 z m -0.951079,0.555724 c 0.221035,-0.04041 0.444186,0.04356 0.609137,0.229233 0.126247,0.142108 0.179887,0.28123 0.180392,0.467876 0.001,0.387538 -0.387359,0.592949 -0.766094,0.40515 -0.107589,-0.05333 -0.135852,-0.07847 -0.241979,-0.215027 -0.138968,-0.178816 -0.170947,-0.280054 -0.14835,-0.469644 0.02583,-0.216751 0.170788,-0.381726 0.366894,-0.417588 z m 1.275107,-1.236977 c 0.07385,-0.02338 0.254158,-0.0041 0.363754,0.03891 0.102948,0.04044 0.219336,0.193624 0.2274,0.29942 0.01228,0.161137 -0.100547,0.268531 -0.292715,0.278535 -0.292088,0.01522 -0.540982,-0.21477 -0.485562,-0.448583 0.01485,-0.06246 0.102778,-0.141582 0.187122,-0.168278 z m 0.2932,-0.728869 c 0.161642,-0.04249 0.383578,0.0091 0.45954,0.106826 0.04674,0.06014 0.05801,0.182635 0.0246,0.267205 -0.09666,0.244559 -0.530004,0.263636 -0.665237,0.02928 -0.04854,-0.08413 -0.03615,-0.230833 0.02499,-0.296031 0.02107,-0.02245 0.04808,-0.05138 0.06002,-0.06428 0.01192,-0.01291 0.05518,-0.03225 0.09608,-0.043 z m -0.04743,-0.705179 c 0.132646,-0.01002 0.281157,0.05844 0.328197,0.151279 0.105487,0.208201 -0.213733,0.424206 -0.457648,0.30967 -0.03858,-0.01812 -0.09527,-0.06517 -0.125977,-0.104588 -0.117019,-0.150162 0.01792,-0.338422 0.255428,-0.356359 z m -4.082354,-1.255981 c 0.228571,-0.08108 0.490406,-0.09361 0.848819,-0.04059 0.175609,0.02596 0.364922,0.06453 0.420695,0.08569 0.05579,0.0211 0.148801,0.04826 0.206721,0.06022 0.335569,0.06929 0.874515,0.301635 1.165564,0.50249 0.595785,0.411153 0.968687,0.961972 0.996361,1.471742 0.02818,0.518995 -0.199187,0.949884 -0.722126,1.368544 -0.228773,0.183149 -0.396945,0.260653 -0.626664,0.288816 -0.171475,0.02102 -0.415626,-0.02072 -0.552628,-0.09448 -0.312375,-0.168172 -0.557523,-0.510864 -0.577871,-0.807792 -0.01297,-0.189133 -0.04098,-0.276403 -0.141685,-0.441189 -0.125182,-0.204855 -0.336719,-0.425563 -0.602997,-0.629128 -0.362946,-0.277471 -0.676527,-0.554222 -0.785476,-0.693222 -0.09131,-0.116463 -0.108105,-0.151382 -0.130565,-0.271056 -0.03023,-0.161083 -0.02931,-0.180168 0.01627,-0.334661 0.03862,-0.130934 0.161952,-0.29642 0.275318,-0.36943 0.04058,-0.02619 0.135236,-0.06934 0.210265,-0.09595 z"
             inkscape:export-filename="Logo-Colour-2.png"
             inkscape:export-xdpi="96"
             inkscape:export-ydpi="96" /><path
             id="path391"
             style="fill:#ffa8a9;fill-opacity:1;stroke:none;stroke-width:0.3;stroke-dasharray:none;stroke-opacity:1"
             d="m 29.515839,27.495066 c 0.09727,-0.0338 0.351247,0.0026 0.458318,0.06562 0.05628,0.03314 0.154881,0.120406 0.219118,0.193936 0.107326,0.122863 0.116169,0.144254 0.109051,0.264069 -0.0064,0.106889 -0.02485,0.147861 -0.103031,0.227431 -0.119127,0.121384 -0.222767,0.157786 -0.40564,0.142459 -0.362153,-0.03036 -0.683459,-0.380464 -0.573417,-0.624821 0.04021,-0.0892 0.201771,-0.236105 0.295572,-0.268688 z m -1.120508,0.841108 c 0.273374,-0.08335 0.567596,-0.0099 0.803136,0.200652 0.180277,0.161108 0.268375,0.329055 0.296281,0.564811 0.05785,0.489515 -0.402802,0.805787 -0.908776,0.623831 -0.143722,-0.05168 -0.183127,-0.07926 -0.337156,-0.236334 -0.201712,-0.205633 -0.256907,-0.328877 -0.256053,-0.571727 9.81e-4,-0.277638 0.160013,-0.507269 0.402566,-0.581227 z m 1.430392,-1.749214 c 0.0899,-0.04033 0.320532,-0.04231 0.465289,-0.004 0.135998,0.03599 0.305421,0.212599 0.331066,0.345099 0.03906,0.201803 -0.08784,0.35397 -0.329155,0.394692 -0.36683,0.06191 -0.714926,-0.192279 -0.679047,-0.495849 0.0096,-0.08111 0.109179,-0.193903 0.211847,-0.239958 z m 0.264002,-0.963759 c 0.198026,-0.07731 0.485984,-0.04454 0.596236,0.06785 0.06785,0.06916 0.09999,0.222284 0.07012,0.334022 -0.08639,0.323125 -0.63115,0.410537 -0.836255,0.134182 -0.07362,-0.0992 -0.0794,-0.286378 -0.01167,-0.377691 0.02337,-0.03143 0.05324,-0.07194 0.06643,-0.08998 0.0132,-0.01804 0.06502,-0.04882 0.115129,-0.06837 z m -0.162941,-0.884073 c 0.166135,-0.03203 0.363781,0.03276 0.436781,0.143196 0.1637,0.247651 -0.208084,0.567213 -0.533,0.45813 -0.05141,-0.01721 -0.12989,-0.06843 -0.174456,-0.113745 -0.169793,-0.172631 -0.0268,-0.430215 0.270675,-0.487577 z M 24.5852,23.748593 c 0.276957,-0.135841 0.605958,-0.189917 1.06656,-0.175295 0.225678,0.0071 0.470508,0.02822 0.544072,0.04681 0.07356,0.01858 0.195059,0.03924 0.269992,0.0459 0.434119,0.03852 1.149021,0.253361 1.546109,0.464619 0.812844,0.432456 1.364482,1.07394 1.473922,1.713996 0.111439,0.651636 -0.112902,1.229287 -0.712476,1.834662 -0.2623,0.264834 -0.463464,0.387328 -0.749601,0.456475 -0.213592,0.05161 -0.528172,0.03458 -0.712054,-0.03864 -0.419256,-0.166851 -0.779066,-0.564029 -0.848157,-0.936228 -0.044,-0.237079 -0.09217,-0.343251 -0.243473,-0.536747 -0.188099,-0.240547 -0.487621,-0.48851 -0.853803,-0.706815 -0.499127,-0.29756 -0.935767,-0.601426 -1.093732,-0.761139 -0.132381,-0.133809 -0.158705,-0.175481 -0.204569,-0.323406 -0.06173,-0.199112 -0.06336,-0.223359 -0.02835,-0.425221 0.02971,-0.171075 0.161279,-0.398207 0.293899,-0.507002 0.04745,-0.03903 0.160742,-0.107362 0.251654,-0.151954 z" /><path
             id="path393"
             style="fill:#84a9c0;fill-opacity:1;stroke:none;stroke-width:0.3;stroke-dasharray:none;stroke-opacity:1"
             d="m 38.250661,35.735729 c 0.124508,-0.01834 0.421123,0.08337 0.535263,0.183542 0.06001,0.05263 0.158442,0.179949 0.218758,0.282916 0.100781,0.172041 0.106506,0.199743 0.07057,0.341968 -0.03205,0.126885 -0.06367,0.171833 -0.175631,0.249542 -0.170767,0.118508 -0.303517,0.138529 -0.519574,0.07833 -0.427864,-0.119223 -0.733618,-0.612986 -0.545658,-0.881215 0.06865,-0.09791 0.296206,-0.23736 0.416273,-0.255041 z M 36.71314,36.4895 c 0.347266,-0.0376 0.683718,0.117877 0.918399,0.42445 0.179625,0.234629 0.247016,0.456402 0.226641,0.745829 -0.04242,0.600941 -0.667762,0.875387 -1.233657,0.541294 -0.160752,-0.09488 -0.201728,-0.137044 -0.350782,-0.360799 -0.195186,-0.292985 -0.233288,-0.453566 -0.176763,-0.74494 0.06464,-0.33311 0.308049,-0.572464 0.61616,-0.60583 z m 2.117107,-1.773237 c 0.117149,-0.02788 0.394504,0.02246 0.559544,0.101558 0.155048,0.07431 0.318107,0.325048 0.318612,0.48999 7.89e-4,0.251218 -0.186351,0.40491 -0.485389,0.398651 -0.45457,-0.0095 -0.814406,-0.394242 -0.701952,-0.750512 0.03003,-0.09518 0.175386,-0.207856 0.309183,-0.239681 z m 0.537219,-1.096769 c 0.255421,-0.04756 0.593658,0.0576 0.700352,0.217695 0.06565,0.09853 0.06925,0.28973 0.0078,0.417055 -0.177516,0.368231 -0.85159,0.348657 -1.034686,-0.03001 -0.06572,-0.135935 -0.02988,-0.361976 0.07231,-0.456127 0.0352,-0.03241 0.08036,-0.0742 0.100339,-0.09285 0.01999,-0.01862 0.08922,-0.04376 0.153848,-0.05577 z m 0.0064,-1.098666 c 0.206786,-4.97e-4 0.429274,0.122465 0.49168,0.271743 0.139941,0.334745 -0.379465,0.633445 -0.744628,0.428227 -0.05774,-0.03246 -0.14031,-0.11184 -0.183452,-0.176441 -0.164403,-0.24607 0.06614,-0.522648 0.436404,-0.523532 z m -6.186808,-2.409996 c 0.363562,-0.0998 0.770923,-0.08953 1.320587,0.03328 0.269316,0.06016 0.558451,0.141408 0.642523,0.18054 0.08408,0.03911 0.225223,0.09169 0.313673,0.116798 0.512405,0.145456 1.321625,0.566787 1.750098,0.911167 0.877078,0.70498 1.392783,1.601222 1.377901,2.394694 -0.01513,0.807831 -0.416482,1.450098 -1.274698,2.039895 -0.375444,0.258016 -0.644959,0.359111 -1.004303,0.376736 -0.268236,0.01316 -0.642026,-0.07925 -0.846069,-0.209127 -0.465232,-0.29614 -0.806457,-0.855226 -0.804348,-1.317882 0.0013,-0.294697 -0.03221,-0.433176 -0.169653,-0.700069 -0.170859,-0.331792 -0.473801,-0.697952 -0.863555,-1.043737 -0.53125,-0.471328 -0.986045,-0.935937 -1.139202,-1.163791 -0.128361,-0.190902 -0.150439,-0.246954 -0.171699,-0.435037 -0.0286,-0.253164 -0.02502,-0.282646 0.06316,-0.517004 0.07478,-0.1986 0.284686,-0.441204 0.468726,-0.541547 0.0659,-0.03603 0.217526,-0.09217 0.336866,-0.124926 z" /></g></g><g
         id="g405"
         inkscape:label="Time"
         style="fill:#e9edc9;fill-opacity:1"
         transform="translate(-33.883703,-1.8788793)"><text
           xml:space="preserve"
           style="font-style:normal;font-variant:normal;font-weight:normal;font-stretch:normal;font-size:17.1319px;font-family:Dosis;-inkscape-font-specification:'Dosis, Normal';font-variant-ligatures:normal;font-variant-caps:normal;font-variant-numeric:normal;font-variant-east-asian:normal;text-align:center;text-anchor:middle;fill:#faedcd;fill-opacity:1;stroke-width:0.2;stroke-linecap:square;stroke-linejoin:round;stroke-miterlimit:0;paint-order:markers fill stroke"
           x="67.408333"
           y="45.83651"
           id="text401"
           transform="translate(-1.1458334e-6)"
           inkscape:label="Text"><tspan
             sodipodi:role="line"
             id="tspan399"
             style="font-style:normal;font-variant:normal;font-weight:normal;font-stretch:normal;font-size:17.1319px;font-family:Dosis;-inkscape-font-specification:'Dosis, Normal';font-variant-ligatures:normal;font-variant-caps:normal;font-variant-numeric:normal;font-variant-east-asian:normal;fill:#faedcd;fill-opacity:1;stroke-width:0.2"
             x="67.408333"
             y="45.83651">Time</tspan></text><path
           style="display:none;fill:#ffa8a9;fill-opacity:1;stroke:#fefae0;stroke-width:0.3;stroke-dasharray:none;stroke-opacity:1"
           d="m 61.78192,34.849326 c -0.28964,-0.06821 -0.65452,-0.292858 -1.03361,-0.636356 -0.19853,-0.179892 -0.50888,-0.443701 -0.68965,-0.586244 -0.52305,-0.412419 -0.57962,-0.520687 -0.36206,-0.692867 0.10309,-0.08158 0.16612,-0.09406 0.40013,-0.07926 0.24016,0.0152 0.29768,0.03693 0.42481,0.160549 0.18555,0.180419 0.29862,0.188086 0.29828,0.02022 -3.3e-4,-0.193949 -0.0781,-0.433992 -0.35989,-1.11226 -0.34852,-0.838789 -0.34647,-1.063873 0.0105,-1.15324 0.21523,-0.05388 0.36929,0.148225 0.59161,0.776108 0.18802,0.531017 0.29773,0.728433 0.36648,0.659459 0.0445,-0.04464 0.0393,-0.216892 -0.0293,-0.974991 -0.0542,-0.599014 -0.0529,-0.665323 0.015,-0.769283 0.0842,-0.128943 0.24179,-0.183062 0.40982,-0.140754 0.18225,0.04589 0.2443,0.268358 0.28224,1.011894 0.0224,0.438211 0.0535,0.684475 0.0926,0.731727 0.0963,0.11644 0.13564,0.01846 0.18066,-0.450296 0.0549,-0.572001 0.11896,-0.805252 0.24922,-0.908037 0.17456,-0.137752 0.42954,-0.022 0.48229,0.218947 0.0148,0.06767 0.005,0.291563 -0.0224,0.49754 -0.0909,0.689512 -0.10305,0.887831 -0.0545,0.887831 0.0255,0 0.0904,-0.145385 0.14415,-0.32308 0.18814,-0.621399 0.32722,-0.78468 0.59009,-0.692749 0.25278,0.0884 0.27092,0.317388 0.0756,0.953993 -0.0743,0.242084 -0.17235,0.673329 -0.21794,0.958325 -0.13278,0.830159 -0.32906,1.225287 -0.71486,1.439106 -0.40257,0.223117 -0.76748,0.28894 -1.12935,0.203714 z"
           id="path403"
           inkscape:label="Hand" /></g><g
         id="g413"
         inkscape:label="Family"
         style="fill:#e9edc9;fill-opacity:1"
         transform="translate(-0.52916663,1.0583333)"><text
           xml:space="preserve"
           style="font-style:normal;font-variant:normal;font-weight:normal;font-stretch:normal;font-size:17.1319px;font-family:Dosis;-inkscape-font-specification:'Dosis, Normal';font-variant-ligatures:normal;font-variant-caps:normal;font-variant-numeric:normal;font-variant-east-asian:normal;text-align:center;text-anchor:middle;fill:#faedcd;fill-opacity:1;stroke-width:0.2;stroke-linecap:square;stroke-linejoin:round;stroke-miterlimit:0;paint-order:markers fill stroke"
           x="37.081554"
           y="27.862631"
           id="text409"
           inkscape:label="Text"><tspan
             sodipodi:role="line"
             id="tspan407"
             style="font-style:normal;font-variant:normal;font-weight:normal;font-stretch:normal;font-size:17.1319px;font-family:Dosis;-inkscape-font-specification:'Dosis, Normal';font-variant-ligatures:normal;font-variant-caps:normal;font-variant-numeric:normal;font-variant-east-asian:normal;fill:#faedcd;fill-opacity:1;stroke-width:0.2"
             x="37.081554"
             y="27.862631">Family</tspan></text><path
           style="display:none;fill:#84a9c0;fill-opacity:1;stroke:#fefae0;stroke-width:0.3;stroke-dasharray:none;stroke-opacity:1"
           d="m 47.083283,16.550061 c -0.69987,-0.188072 -0.985318,-0.591094 -1.133896,-1.600939 -0.03957,-0.268967 -0.132184,-0.683999 -0.205803,-0.922293 -0.209558,-0.678313 -0.189971,-0.916829 0.08384,-1.020931 0.218938,-0.08324 0.411046,0.157764 0.565103,0.708937 0.07353,0.263079 0.131344,0.360295 0.183337,0.308302 0.01238,-0.01238 -0.009,-0.249222 -0.04753,-0.526312 -0.124963,-0.898857 -0.07653,-1.123867 0.241915,-1.123867 0.265477,0 0.362007,0.232038 0.424916,1.021399 0.03355,0.420891 0.07942,0.52838 0.173222,0.405814 0.04081,-0.05333 0.0713,-0.271833 0.09017,-0.646194 0.0318,-0.63096 0.08622,-0.928662 0.190971,-1.044697 0.08231,-0.09117 0.312815,-0.100569 0.422504,-0.01723 0.155418,0.118079 0.169083,0.263529 0.09433,1.004044 -0.07322,0.725371 -0.06552,0.868251 0.04454,0.826017 0.07708,-0.02958 0.145374,-0.172556 0.275204,-0.576144 0.1652,-0.513538 0.287086,-0.735576 0.445172,-0.810962 0.128227,-0.06115 0.155717,-0.06068 0.282265,0.0047 0.263577,0.136301 0.248767,0.327916 -0.08333,1.078105 -0.124053,0.280231 -0.254352,0.604427 -0.289555,0.720435 -0.07528,0.248067 -0.08497,0.545164 -0.01779,0.545164 0.02594,0 0.125636,-0.06305 0.22153,-0.140112 0.282924,-0.227365 0.771439,-0.237055 0.914872,-0.01815 0.09758,0.148925 0.04276,0.234551 -0.348947,0.545031 -0.177173,0.140433 -0.496084,0.410459 -0.708689,0.600059 -0.470807,0.41986 -0.692957,0.56403 -1.03236,0.66998 -0.307821,0.09609 -0.457873,0.09796 -0.78598,0.0098 z"
           id="path411"
           inkscape:label="Hand" /></g></g><g
       inkscape:label="Black-Centered-Feet"
       inkscape:groupmode="layer"
       id="g1005"
       transform="translate(116.07389,119.98871)"
       style="fill:#000000"><g
         inkscape:groupmode="layer"
         id="g987"
         inkscape:label="Feet"
         transform="matrix(-0.25496453,-0.92488331,0.90595979,-0.26029018,43.440984,63.437821)"
         style="fill:#000000;stroke-width:1.0516"><g
           inkscape:groupmode="layer"
           id="g977"
           inkscape:label="Right Foot"
           style="fill:#000000;fill-opacity:1;stroke-width:1.0516"
           transform="translate(-1.0625e-6)"><path
             id="path971"
             style="fill:#000000;fill-opacity:1;stroke:none;stroke-width:0.31548;stroke-dasharray:none;stroke-opacity:1"
             d="m 19.500489,28.181434 c 0.283797,-0.09066 0.479275,0.368663 0.24143,0.567281 -0.166407,0.138964 -0.406925,-0.02239 -0.414866,-0.278313 -0.0037,-0.118868 0.08061,-0.259315 0.173436,-0.288968 z m 0.73488,0.06133 c 0.12886,-0.07991 0.322871,-0.01236 0.401418,0.139774 0.02086,0.04045 0.04048,0.123764 0.04358,0.185163 0.01306,0.260998 -0.258126,0.434802 -0.460376,0.295054 -0.208575,-0.144136 -0.200076,-0.486369 0.01541,-0.619994 z m 0.749571,-0.36377 c 0.124917,-0.03117 0.205815,-0.01015 0.322543,0.08381 0.16439,0.132332 0.217508,0.35029 0.124831,0.512135 -0.175433,0.306381 -0.663227,0.03952 -0.63399,-0.346845 0.01063,-0.14041 0.0703,-0.220069 0.186604,-0.249107 z m 1.107483,-1.456157 c 0.138785,-0.119431 0.300571,-0.157025 0.52025,-0.120892 0.285393,0.04694 0.507464,0.236089 0.569234,0.484843 0.07337,0.295519 -0.07089,0.519176 -0.381969,0.592163 -0.404865,0.09502 -0.905968,-0.293214 -0.856125,-0.663257 0.01451,-0.107683 0.07735,-0.231536 0.148606,-0.292856 z m -0.420773,0.978782 c 0.110537,-0.04906 0.206063,-0.02844 0.357412,0.0771 0.217174,0.15169 0.280572,0.311006 0.204186,0.514583 -0.0682,0.18182 -0.228773,0.24079 -0.426899,0.156806 -0.218032,-0.09248 -0.363202,-0.314228 -0.324524,-0.49585 0.0223,-0.104744 0.105225,-0.215094 0.189825,-0.252632 z m -3.826497,-3.117555 c 0.240105,-0.197586 0.620019,-0.208017 0.883306,-0.02425 0.105555,0.07366 0.413164,0.341055 0.664402,0.577559 0.103868,0.0978 0.284569,0.241941 0.435379,0.347354 0.310626,0.217067 0.503907,0.302249 0.688989,0.303449 0.06631,4.35e-4 0.162631,7.85e-4 0.214012,8.09e-4 0.163285,6.9e-5 0.383104,0.07958 0.55758,0.201666 0.246195,0.172453 0.372277,0.359806 0.416221,0.619242 0.05242,0.30942 -0.03798,0.575878 -0.318163,0.937914 -0.461577,0.596422 -1.03404,0.823474 -1.693968,0.67188 -0.285526,-0.06558 -0.446815,-0.139272 -0.721929,-0.329815 -0.322196,-0.22315 -0.564339,-0.474665 -0.796425,-0.827276 -0.09851,-0.149678 -0.260229,-0.473906 -0.325728,-0.653051 -0.02179,-0.05967 -0.05747,-0.140777 -0.07924,-0.180246 -0.0626,-0.113501 -0.162526,-0.427359 -0.194294,-0.610246 -0.03445,-0.198492 -0.03418,-0.41359 7.83e-4,-0.580756 0.03095,-0.147957 0.158462,-0.363218 0.269083,-0.454246 z" /></g><g
           inkscape:groupmode="layer"
           id="g985"
           inkscape:label="Left Foot"
           style="fill:#000000;fill-opacity:1;stroke-width:1.0516"
           transform="translate(-1.0625e-6)"><path
             id="path979"
             style="fill:#000000;fill-opacity:1;stroke:none;stroke-width:0.31548;stroke-dasharray:none;stroke-opacity:1"
             d="m 21.149585,21.514497 c 0.07901,-0.01761 0.274093,0.03373 0.352027,0.09263 0.04096,0.03096 0.110093,0.108023 0.153621,0.171251 0.07273,0.105651 0.0777,0.123153 0.06132,0.216089 -0.01461,0.08291 -0.0328,0.113227 -0.100987,0.168332 -0.104001,0.08404 -0.18823,0.103115 -0.329671,0.07463 -0.280103,-0.05641 -0.499426,-0.358864 -0.391418,-0.53977 0.03943,-0.06604 0.178904,-0.166179 0.255107,-0.183156 z m -0.951079,0.555724 c 0.221035,-0.04041 0.444186,0.04356 0.609137,0.229233 0.126247,0.142108 0.179887,0.28123 0.180392,0.467876 0.001,0.387538 -0.387359,0.592949 -0.766094,0.40515 -0.107589,-0.05333 -0.135852,-0.07847 -0.241979,-0.215027 -0.138968,-0.178816 -0.170947,-0.280054 -0.14835,-0.469644 0.02583,-0.216751 0.170788,-0.381726 0.366894,-0.417588 z m 1.275107,-1.236977 c 0.07385,-0.02338 0.254158,-0.0041 0.363754,0.03891 0.102948,0.04044 0.219336,0.193624 0.2274,0.29942 0.01228,0.161137 -0.100547,0.268531 -0.292715,0.278535 -0.292088,0.01522 -0.540982,-0.21477 -0.485562,-0.448583 0.01485,-0.06246 0.102778,-0.141582 0.187122,-0.168278 z m 0.2932,-0.728869 c 0.161642,-0.04249 0.383578,0.0091 0.45954,0.106826 0.04674,0.06014 0.05801,0.182635 0.0246,0.267205 -0.09666,0.244559 -0.530004,0.263636 -0.665237,0.02928 -0.04854,-0.08413 -0.03615,-0.230833 0.02499,-0.296031 0.02107,-0.02245 0.04808,-0.05138 0.06002,-0.06428 0.01192,-0.01291 0.05518,-0.03225 0.09608,-0.043 z m -0.04743,-0.705179 c 0.132646,-0.01002 0.281157,0.05844 0.328197,0.151279 0.105487,0.208201 -0.213733,0.424206 -0.457648,0.30967 -0.03858,-0.01812 -0.09527,-0.06517 -0.125977,-0.104588 -0.117019,-0.150162 0.01792,-0.338422 0.255428,-0.356359 z m -4.082354,-1.255981 c 0.228571,-0.08108 0.490406,-0.09361 0.848819,-0.04059 0.175609,0.02596 0.364922,0.06453 0.420695,0.08569 0.05579,0.0211 0.148801,0.04826 0.206721,0.06022 0.335569,0.06929 0.874515,0.301635 1.165564,0.50249 0.595785,0.411153 0.968687,0.961972 0.996361,1.471742 0.02818,0.518995 -0.199187,0.949884 -0.722126,1.368544 -0.228773,0.183149 -0.396945,0.260653 -0.626664,0.288816 -0.171475,0.02102 -0.415626,-0.02072 -0.552628,-0.09448 -0.312375,-0.168172 -0.557523,-0.510864 -0.577871,-0.807792 -0.01297,-0.189133 -0.04098,-0.276403 -0.141685,-0.441189 -0.125182,-0.204855 -0.336719,-0.425563 -0.602997,-0.629128 -0.362946,-0.277471 -0.676527,-0.554222 -0.785476,-0.693222 -0.09131,-0.116463 -0.108105,-0.151382 -0.130565,-0.271056 -0.03023,-0.161083 -0.02931,-0.180168 0.01627,-0.334661 0.03862,-0.130934 0.161952,-0.29642 0.275318,-0.36943 0.04058,-0.02619 0.135236,-0.06934 0.210265,-0.09595 z"
             inkscape:export-filename="Logo-Colour-2.png"
             inkscape:export-xdpi="96"
             inkscape:export-ydpi="96" /><path
             id="path981"
             style="fill:#000000;fill-opacity:1;stroke:none;stroke-width:0.31548;stroke-dasharray:none;stroke-opacity:1"
             d="m 29.515839,27.495066 c 0.09727,-0.0338 0.351247,0.0026 0.458318,0.06562 0.05628,0.03314 0.154881,0.120406 0.219118,0.193936 0.107326,0.122863 0.116169,0.144254 0.109051,0.264069 -0.0064,0.106889 -0.02485,0.147861 -0.103031,0.227431 -0.119127,0.121384 -0.222767,0.157786 -0.40564,0.142459 -0.362153,-0.03036 -0.683459,-0.380464 -0.573417,-0.624821 0.04021,-0.0892 0.201771,-0.236105 0.295572,-0.268688 z m -1.120508,0.841108 c 0.273374,-0.08335 0.567596,-0.0099 0.803136,0.200652 0.180277,0.161108 0.268375,0.329055 0.296281,0.564811 0.05785,0.489515 -0.402802,0.805787 -0.908776,0.623831 -0.143722,-0.05168 -0.183127,-0.07926 -0.337156,-0.236334 -0.201712,-0.205633 -0.256907,-0.328877 -0.256053,-0.571727 9.81e-4,-0.277638 0.160013,-0.507269 0.402566,-0.581227 z m 1.430392,-1.749214 c 0.0899,-0.04033 0.320532,-0.04231 0.465289,-0.004 0.135998,0.03599 0.305421,0.212599 0.331066,0.345099 0.03906,0.201803 -0.08784,0.35397 -0.329155,0.394692 -0.36683,0.06191 -0.714926,-0.192279 -0.679047,-0.495849 0.0096,-0.08111 0.109179,-0.193903 0.211847,-0.239958 z m 0.264002,-0.963759 c 0.198026,-0.07731 0.485984,-0.04454 0.596236,0.06785 0.06785,0.06916 0.09999,0.222284 0.07012,0.334022 -0.08639,0.323125 -0.63115,0.410537 -0.836255,0.134182 -0.07362,-0.0992 -0.0794,-0.286378 -0.01167,-0.377691 0.02337,-0.03143 0.05324,-0.07194 0.06643,-0.08998 0.0132,-0.01804 0.06502,-0.04882 0.115129,-0.06837 z m -0.162941,-0.884073 c 0.166135,-0.03203 0.363781,0.03276 0.436781,0.143196 0.1637,0.247651 -0.208084,0.567213 -0.533,0.45813 -0.05141,-0.01721 -0.12989,-0.06843 -0.174456,-0.113745 -0.169793,-0.172631 -0.0268,-0.430215 0.270675,-0.487577 z M 24.5852,23.748593 c 0.276957,-0.135841 0.605958,-0.189917 1.06656,-0.175295 0.225678,0.0071 0.470508,0.02822 0.544072,0.04681 0.07356,0.01858 0.195059,0.03924 0.269992,0.0459 0.434119,0.03852 1.149021,0.253361 1.546109,0.464619 0.812844,0.432456 1.364482,1.07394 1.473922,1.713996 0.111439,0.651636 -0.112902,1.229287 -0.712476,1.834662 -0.2623,0.264834 -0.463464,0.387328 -0.749601,0.456475 -0.213592,0.05161 -0.528172,0.03458 -0.712054,-0.03864 -0.419256,-0.166851 -0.779066,-0.564029 -0.848157,-0.936228 -0.044,-0.237079 -0.09217,-0.343251 -0.243473,-0.536747 -0.188099,-0.240547 -0.487621,-0.48851 -0.853803,-0.706815 -0.499127,-0.29756 -0.935767,-0.601426 -1.093732,-0.761139 -0.132381,-0.133809 -0.158705,-0.175481 -0.204569,-0.323406 -0.06173,-0.199112 -0.06336,-0.223359 -0.02835,-0.425221 0.02971,-0.171075 0.161279,-0.398207 0.293899,-0.507002 0.04745,-0.03903 0.160742,-0.107362 0.251654,-0.151954 z" /></g></g><g
         id="g995"
         inkscape:label="Time"
         style="fill:#000000;fill-opacity:1;stroke-width:1.12704"
         transform="matrix(0.88728573,0,0,0.88726535,-22.69156,1.8766602)"><text
           xml:space="preserve"
           style="font-style:normal;font-variant:normal;font-weight:normal;font-stretch:normal;font-size:17.1319px;font-family:Dosis;-inkscape-font-specification:'Dosis, Normal';font-variant-ligatures:normal;font-variant-caps:normal;font-variant-numeric:normal;font-variant-east-asian:normal;text-align:center;text-anchor:middle;fill:#000000;fill-opacity:1;stroke-width:0.225409;stroke-linecap:square;stroke-linejoin:round;stroke-miterlimit:0;paint-order:markers fill stroke"
           x="67.408333"
           y="45.83651"
           id="text991"
           transform="translate(-1.1458334e-6)"
           inkscape:label="Text"><tspan
             sodipodi:role="line"
             id="tspan989"
             style="font-style:normal;font-variant:normal;font-weight:normal;font-stretch:normal;font-size:17.1319px;font-family:Dosis;-inkscape-font-specification:'Dosis, Normal';font-variant-ligatures:normal;font-variant-caps:normal;font-variant-numeric:normal;font-variant-east-asian:normal;fill:#000000;fill-opacity:1;stroke-width:0.225409"
             x="67.408333"
             y="45.83651">Time</tspan></text><path
           style="display:none;fill:#000000;fill-opacity:1;stroke:#fefae0;stroke-width:0.338114;stroke-dasharray:none;stroke-opacity:1"
           d="m 61.78192,34.849326 c -0.28964,-0.06821 -0.65452,-0.292858 -1.03361,-0.636356 -0.19853,-0.179892 -0.50888,-0.443701 -0.68965,-0.586244 -0.52305,-0.412419 -0.57962,-0.520687 -0.36206,-0.692867 0.10309,-0.08158 0.16612,-0.09406 0.40013,-0.07926 0.24016,0.0152 0.29768,0.03693 0.42481,0.160549 0.18555,0.180419 0.29862,0.188086 0.29828,0.02022 -3.3e-4,-0.193949 -0.0781,-0.433992 -0.35989,-1.11226 -0.34852,-0.838789 -0.34647,-1.063873 0.0105,-1.15324 0.21523,-0.05388 0.36929,0.148225 0.59161,0.776108 0.18802,0.531017 0.29773,0.728433 0.36648,0.659459 0.0445,-0.04464 0.0393,-0.216892 -0.0293,-0.974991 -0.0542,-0.599014 -0.0529,-0.665323 0.015,-0.769283 0.0842,-0.128943 0.24179,-0.183062 0.40982,-0.140754 0.18225,0.04589 0.2443,0.268358 0.28224,1.011894 0.0224,0.438211 0.0535,0.684475 0.0926,0.731727 0.0963,0.11644 0.13564,0.01846 0.18066,-0.450296 0.0549,-0.572001 0.11896,-0.805252 0.24922,-0.908037 0.17456,-0.137752 0.42954,-0.022 0.48229,0.218947 0.0148,0.06767 0.005,0.291563 -0.0224,0.49754 -0.0909,0.689512 -0.10305,0.887831 -0.0545,0.887831 0.0255,0 0.0904,-0.145385 0.14415,-0.32308 0.18814,-0.621399 0.32722,-0.78468 0.59009,-0.692749 0.25278,0.0884 0.27092,0.317388 0.0756,0.953993 -0.0743,0.242084 -0.17235,0.673329 -0.21794,0.958325 -0.13278,0.830159 -0.32906,1.225287 -0.71486,1.439106 -0.40257,0.223117 -0.76748,0.28894 -1.12935,0.203714 z"
           id="path993"
           inkscape:label="Hand" /></g><g
         id="g1003"
         inkscape:label="Family"
         style="fill:#000000;fill-opacity:1;stroke-width:0.926217"
         transform="matrix(1.0796685,0,0,1.0796515,-1.967878,-0.11979131)"><text
           xml:space="preserve"
           style="font-style:normal;font-variant:normal;font-weight:normal;font-stretch:normal;font-size:17.1319px;font-family:Dosis;-inkscape-font-specification:'Dosis, Normal';font-variant-ligatures:normal;font-variant-caps:normal;font-variant-numeric:normal;font-variant-east-asian:normal;text-align:center;text-anchor:middle;fill:#000000;fill-opacity:1;stroke-width:0.185244;stroke-linecap:square;stroke-linejoin:round;stroke-miterlimit:0;paint-order:markers fill stroke"
           x="37.081554"
           y="27.862631"
           id="text999"
           inkscape:label="Text"><tspan
             sodipodi:role="line"
             id="tspan997"
             style="font-style:normal;font-variant:normal;font-weight:normal;font-stretch:normal;font-size:17.1319px;font-family:Dosis;-inkscape-font-specification:'Dosis, Normal';font-variant-ligatures:normal;font-variant-caps:normal;font-variant-numeric:normal;font-variant-east-asian:normal;fill:#000000;fill-opacity:1;stroke-width:0.185244"
             x="37.081554"
             y="27.862631">Family</tspan></text><path
           style="display:none;fill:#000000;fill-opacity:1;stroke:#fefae0;stroke-width:0.277865;stroke-dasharray:none;stroke-opacity:1"
           d="m 47.083283,16.550061 c -0.69987,-0.188072 -0.985318,-0.591094 -1.133896,-1.600939 -0.03957,-0.268967 -0.132184,-0.683999 -0.205803,-0.922293 -0.209558,-0.678313 -0.189971,-0.916829 0.08384,-1.020931 0.218938,-0.08324 0.411046,0.157764 0.565103,0.708937 0.07353,0.263079 0.131344,0.360295 0.183337,0.308302 0.01238,-0.01238 -0.009,-0.249222 -0.04753,-0.526312 -0.124963,-0.898857 -0.07653,-1.123867 0.241915,-1.123867 0.265477,0 0.362007,0.232038 0.424916,1.021399 0.03355,0.420891 0.07942,0.52838 0.173222,0.405814 0.04081,-0.05333 0.0713,-0.271833 0.09017,-0.646194 0.0318,-0.63096 0.08622,-0.928662 0.190971,-1.044697 0.08231,-0.09117 0.312815,-0.100569 0.422504,-0.01723 0.155418,0.118079 0.169083,0.263529 0.09433,1.004044 -0.07322,0.725371 -0.06552,0.868251 0.04454,0.826017 0.07708,-0.02958 0.145374,-0.172556 0.275204,-0.576144 0.1652,-0.513538 0.287086,-0.735576 0.445172,-0.810962 0.128227,-0.06115 0.155717,-0.06068 0.282265,0.0047 0.263577,0.136301 0.248767,0.327916 -0.08333,1.078105 -0.124053,0.280231 -0.254352,0.604427 -0.289555,0.720435 -0.07528,0.248067 -0.08497,0.545164 -0.01779,0.545164 0.02594,0 0.125636,-0.06305 0.22153,-0.140112 0.282924,-0.227365 0.771439,-0.237055 0.914872,-0.01815 0.09758,0.148925 0.04276,0.234551 -0.348947,0.545031 -0.177173,0.140433 -0.496084,0.410459 -0.708689,0.600059 -0.470807,0.41986 -0.692957,0.56403 -1.03236,0.66998 -0.307821,0.09609 -0.457873,0.09796 -0.78598,0.0098 z"
           id="path1001"
           inkscape:label="Hand" /></g></g><g
       inkscape:groupmode="layer"
       id="layer5"
       inkscape:label="Black-Centered-Hand"
       transform="rotate(-105.71821,110.60388,41.109856)"
       style="fill:#000000;stroke-width:1.0516"><path
         id="path6724"
         style="display:none;fill:#ffa8a9;fill-opacity:1;stroke:#fefae0;stroke-width:0.3;stroke-dasharray:none;stroke-opacity:1"
         d="m -1.9132424,56.541683 c 0.455687,-0.08271 0.664682,0.664617 0.25813,0.922971 -0.284444,0.180757 -0.62276,-0.116304 -0.583559,-0.512397 0.01812,-0.183984 0.176345,-0.383535 0.325429,-0.410574 z m 1.12046297,0.242247 c 0.214696,-0.09727 0.500179,0.04584 0.59068,0.296133 0.02403,0.06654 0.03751,0.198914 0.02994,0.294183 -0.03232,0.404944 -0.485291,0.618343 -0.768958,0.362276 -0.29253997,-0.264103 -0.21064597,-0.789935 0.148343,-0.952603 z m 1.228553,-0.410071 c 0.198823,-0.02291 0.319301,0.02571 0.480342,0.194029 0.22680603,0.23702 0.26486903,0.583679 0.08947,0.814529 -0.33200833,0.43701 -1.03028233,-0.07239 -0.90755233,-0.662083 0.0446,-0.214299 0.152612,-0.325087 0.33772,-0.346478 z M 2.4356126,54.35186 c 0.23794,-0.1562 0.494882,-0.181631 0.826245,-0.08178 0.430488,0.129722 0.734782,0.465923 0.779998,0.861784 0.05371,0.470279 -0.213643,0.786041 -0.707819,0.836022 -0.643184,0.06508 -1.337577,-0.634087 -1.186368,-1.194475 0.044,-0.163076 0.165733,-0.341371 0.287945,-0.421552 z m -0.845346,1.424177 c 0.180254,-0.05339 0.323356,-0.0024 0.535445,0.190674 0.304273,0.277481 0.369978,0.5358 0.211311,0.834254 -0.141692,0.266546 -0.401044,0.325182 -0.689566,0.155897 -0.317522,-0.186348 -0.496701,-0.557375 -0.400575,-0.829565 0.05544,-0.156975 0.205427,-0.310413 0.343385,-0.35127 z m -5.271752,-5.574736 c 0.40983,-0.256309 0.997548,-0.196027 1.366455,0.140167 0.147907,0.134763 0.568324,0.608772 0.90806,1.023834 0.140453,0.171625 0.390022,0.430141 0.60129897,0.622944 0.435191,0.397032 0.716001,0.567192 1.001061,0.60624 0.102131,0.014 0.250526,0.03391 0.329722,0.04429 0.25168,0.03298 0.57454603,0.199663 0.81895503,0.42293 0.34484,0.315311 0.50153,0.629457 0.517118,1.038202 0.01861,0.487494 -0.174287,0.88006 -0.67896,1.381807 -0.83138603,0.826581 -1.75945603,1.061506 -2.746235,0.695179 -0.426944,-0.158487 -0.660736,-0.304536 -1.046532,-0.653508 -0.451803,-0.408733 -0.774498,-0.845112 -1.061373,-1.435298 -0.121757,-0.250526 -0.305875,-0.782815 -0.370829,-1.072127 -0.0216,-0.09635 -0.06029,-0.228554 -0.08591,-0.29377 -0.07368,-0.187539 -0.164629,-0.691425 -0.176834,-0.979725 -0.01317,-0.312894 0.03044,-0.644404 0.117933,-0.895056 0.07745,-0.221847 0.31728,-0.528033 0.506088,-0.646113 z" /><path
         id="path6774"
         style="display:none;fill:#84a9c0;fill-opacity:1;stroke:#fefae0;stroke-width:0.3;stroke-dasharray:none;stroke-opacity:1"
         d="m 1.4588976,47.193369 c 0.124508,-0.01834 0.421123,0.08337 0.535263,0.183542 0.06001,0.05263 0.158442,0.179949 0.218758,0.282916 0.100781,0.172041 0.106506,0.199743 0.07057,0.341968 -0.03205,0.126885 -0.06367,0.171833 -0.175631,0.249542 -0.170767,0.118508 -0.303517,0.138529 -0.519574,0.07833 -0.427864,-0.119223 -0.73361803,-0.612986 -0.545658,-0.881215 0.06865,-0.09791 0.296206,-0.23736 0.416273,-0.255041 z m -1.53752103,0.753771 c 0.347266,-0.0376 0.683718,0.117877 0.918399,0.42445 0.17962503,0.234629 0.24701603,0.456402 0.22664103,0.745829 -0.04242,0.600941 -0.66776203,0.875387 -1.23365703,0.541294 -0.160752,-0.09488 -0.201728,-0.137044 -0.350782,-0.360799 -0.195186,-0.292985 -0.233288,-0.453566 -0.176763,-0.74494 0.06464,-0.33311 0.308049,-0.572464 0.61616,-0.60583 z M 2.0384836,46.173903 c 0.117149,-0.02788 0.394504,0.02246 0.559544,0.101558 0.155048,0.07431 0.318107,0.325048 0.318612,0.48999 7.89e-4,0.251218 -0.186351,0.40491 -0.485389,0.398651 -0.45457,-0.0095 -0.814406,-0.394242 -0.701952,-0.750512 0.03003,-0.09518 0.175386,-0.207856 0.309183,-0.239681 z m 0.537219,-1.096769 c 0.255421,-0.04756 0.593658,0.0576 0.700352,0.217695 0.06565,0.09853 0.06925,0.28973 0.0078,0.417055 -0.177516,0.368231 -0.85159,0.348657 -1.034686,-0.03001 -0.06572,-0.135935 -0.02988,-0.361976 0.07231,-0.456127 0.0352,-0.03241 0.08036,-0.0742 0.100339,-0.09285 0.01999,-0.01862 0.08922,-0.04376 0.153848,-0.05577 z m 0.0064,-1.098666 c 0.206786,-4.97e-4 0.429274,0.122465 0.49168,0.271743 0.139941,0.334745 -0.379465,0.633445 -0.744628,0.428227 -0.05774,-0.03246 -0.14031,-0.11184 -0.183452,-0.176441 -0.164403,-0.24607 0.06614,-0.522648 0.436404,-0.523532 z m -6.186808,-2.409996 c 0.363562,-0.0998 0.770923,-0.08953 1.320587,0.03328 0.269316,0.06016 0.558451,0.141408 0.642523,0.18054 0.08408,0.03911 0.225223,0.09169 0.313673,0.116798 0.51240497,0.145456 1.32162497,0.566787 1.75009797,0.911167 0.87707803,0.70498 1.39278303,1.601222 1.37790103,2.394694 -0.01513,0.807831 -0.416482,1.450098 -1.27469803,2.039895 -0.375444,0.258016 -0.644959,0.359111 -1.004303,0.376736 -0.268236,0.01316 -0.64202597,-0.07925 -0.84606897,-0.209127 -0.465232,-0.29614 -0.806457,-0.855226 -0.804348,-1.317882 0.0013,-0.294697 -0.03221,-0.433176 -0.169653,-0.700069 -0.170859,-0.331792 -0.473801,-0.697952 -0.863555,-1.043737 -0.53125,-0.471328 -0.986045,-0.935937 -1.139202,-1.163791 -0.128361,-0.190902 -0.150439,-0.246954 -0.171699,-0.435037 -0.0286,-0.253164 -0.02502,-0.282646 0.06316,-0.517004 0.07478,-0.1986 0.284686,-0.441204 0.468726,-0.541547 0.0659,-0.03603 0.217526,-0.09217 0.336866,-0.124926 z" /><g
         aria-label="Time"
         transform="rotate(105.71821)"
         id="text6901"
         style="font-size:17.1319px;font-family:'Kristen ITC';-inkscape-font-specification:'Kristen ITC, Normal';text-align:center;text-anchor:middle;display:none;fill:#faedcd;stroke-width:0.2;stroke-linecap:square;stroke-linejoin:round;stroke-miterlimit:0;paint-order:markers fill stroke"
         inkscape:label="Text"><path
           d="m 12.897203,-22.28325 q 0,0.326242 -0.250955,0.593928 -0.242591,0.259321 -0.535372,0.259321 -0.200765,0 -0.493546,-0.142208 -0.393164,-0.1924 -0.46845,-0.217495 -1.09584,-0.351338 -4.232785,-0.535372 0.100383,3.856351 0.100383,5.671596 0,3.530109 -0.167304,6.01457 -0.05856,0.8030587 -0.250956,1.1293007 -0.209129,0.3597027 -0.69431,0.3597027 -0.803058,0 -0.803058,-1.0791084 0,-0.04183 0.125478,-2.241871 0.133843,-2.20841 0.133843,-4.366628 0,-1.187857 -0.08365,-5.504292 -3.0783884,0.03346 -4.35826197,0.736136 -0.1505733,1.681402 -1.02055265,1.681402 -0.70267561,0 -0.70267561,-1.045648 0,-1.681402 1.06237861,-2.191679 1.79851502,-0.853249 5.54611862,-0.853249 7.093677,0 7.093677,1.731594 z"
           id="path6920" /><path
           d="m 15.946528,-21.988587 q 0,1.187857 -1.162761,1.187857 -0.46845,0 -0.794693,-0.326243 -0.317877,-0.326242 -0.317877,-0.786327 0,-0.501911 0.351338,-0.853249 0.351338,-0.351338 0.861614,-0.351338 0.476816,0 0.769597,0.309512 0.292782,0.309512 0.292782,0.819788 z m -0.359703,3.187136 q 0,5.044207 -0.359703,7.453381 -0.142208,0.970362 -0.317877,1.304969 -0.22586,0.4433551 -0.727771,0.4433551 -0.334608,0 -0.568833,-0.2174948 -0.234225,-0.2258603 -0.234225,-0.5353723 0,0.04183 0.133843,-0.577197 0.158938,-0.702676 0.25932,-1.597751 0.133843,-1.271509 0.133843,-2.844164 0,-0.685945 -0.01673,-1.447177 -0.01673,-0.761232 -0.01673,-0.828153 0,-1.1293 0.192399,-1.572655 0.200764,-0.485181 0.752867,-0.485181 0.769597,0 0.769597,0.90344 z"
           id="path6922" /><path
           d="m 29.991675,-15.129134 q 0,6.4077326 -1.522464,6.4077326 -0.585563,0 -0.585563,-0.7361364 0,-0.00837 0.284416,-1.9072622 0.284416,-1.907263 0.284416,-3.797795 0,-3.153675 -1.489003,-3.153675 -1.304969,0 -1.714863,1.589385 -0.309512,1.221317 -0.309512,4.801617 0,0.552103 0.08365,1.221318 0.08365,0.660849 0.08365,0.7779618 0,0.8281534 -0.786327,0.8281534 -0.945266,0 -0.945266,-3.0198322 0,-1.271509 0.09202,-2.651764 0.100382,-1.388621 0.100382,-1.489003 0,-1.238048 -1.304969,-1.238048 -1.221317,0 -1.77342,1.09584 -0.535371,1.062378 -0.535371,3.362804 0,1.480638 0.08365,2.760512 0.08365,1.2715083 0.08365,1.0707438 0,0.3178771 -0.234225,0.5270067 -0.22586,0.2091297 -0.585563,0.2091297 -0.744502,0 -0.92017,-1.4220816 -0.05856,-0.4098936 -0.05856,-2.1247576 0,-3.588665 0.585563,-6.851087 0.1924,-1.070744 0.384799,-1.422082 0.22586,-0.426624 0.727771,-0.426624 0.786327,0 0.786327,0.836518 0,0 -0.376433,1.890532 0.719406,-1.012187 2.057836,-1.012187 1.070744,0 1.681402,0.886709 1.062379,-1.748323 2.994737,-1.748323 2.827433,0 2.827433,4.734695 z"
           id="path6924" /><path
           d="m 40.30595,-16.450834 q 0,0.86998 -0.602293,1.288239 -0.267686,0.184034 -1.698133,0.476816 -1.898897,0.393163 -3.237327,0.393163 -0.610659,0 -1.472273,-0.08365 0,3.153675 2.400808,3.153675 0.66085,0 1.196222,-0.376434 0.267686,-0.184034 0.961996,-0.895075 0.250956,-0.25932 0.527007,-0.25932 0.351338,0 0.602294,0.267686 0.25932,0.25932 0.25932,0.644119 0,0.317877 -0.24259,0.585563 -1.438812,1.5726552 -3.37117,1.5726552 -3.998559,0 -3.998559,-4.6259482 0,-2.384078 1.271508,-4.115671 1.447178,-1.965819 3.5803,-1.965819 1.664672,0 2.743781,1.11257 1.079109,1.112569 1.079109,2.827431 z m -1.664672,0.100383 q -0.05019,-1.162761 -0.610659,-1.840341 -0.552102,-0.67758 -1.388621,-0.67758 -1.087474,0 -1.915627,0.777962 -0.853249,0.786327 -1.271508,2.225139 0.593928,0.06692 1.263143,0.06692 1.622846,0 3.923272,-0.552102 z"
           id="path6926" /></g></g><g
       inkscape:label="Black-Centered-Feet"
       inkscape:groupmode="layer"
       id="g2056"
       transform="translate(114.85031,152.24671)"
       style="fill:#000000"><g
         inkscape:groupmode="layer"
         id="g2038"
         inkscape:label="Feet"
         transform="matrix(-0.3690517,-0.42348295,0.41214546,-0.36706466,48.277755,54.056483)"
         style="fill:#000000;stroke-width:1.79605"><g
           inkscape:groupmode="layer"
           id="g2028"
           inkscape:label="Right Foot"
           style="fill:#000000;fill-opacity:1;stroke-width:1.79605"
           transform="translate(-1.0625e-6)"><path
             id="path2022"
             style="fill:#000000;fill-opacity:1;stroke:none;stroke-width:0.538814;stroke-dasharray:none;stroke-opacity:1"
             d="M 28.679775,6.1103995 C 28.864534,6.3444432 28.51537,6.7035972 28.248547,6.553975 28.061864,6.4492934 28.12277,6.1605788 28.353598,6.0559769 c 0.107208,-0.048595 0.265745,-0.02213 0.326177,0.054423 z m 0.208067,0.718375 c 0.119269,0.09157 0.127304,0.300708 0.01662,0.4327197 -0.02944,0.035077 -0.09846,0.085242 -0.153411,0.1114675 -0.233624,0.1113692 -0.489769,-0.079203 -0.434842,-0.3235243 0.05666,-0.2519683 0.372208,-0.3737637 0.571651,-0.2206338 z m 0.601503,0.5709989 c 0.07335,0.1063313 0.08322,0.1908255 0.03937,0.3368822 -0.06176,0.2056965 -0.24169,0.3386274 -0.422772,0.3123659 -0.342794,-0.049705 -0.274405,-0.61234 0.08889,-0.7312622 0.132028,-0.043213 0.226206,-0.016993 0.294512,0.082 z m 1.727566,0.495117 c 0.158922,0.085965 0.251384,0.2247327 0.297329,0.4462305 0.05969,0.2877552 -0.03322,0.5695659 -0.238162,0.7223638 -0.243473,0.1815115 -0.499531,0.1299086 -0.677956,-0.1366453 -0.232244,-0.3469054 -0.05781,-0.9681744 0.297982,-1.0614138 0.103539,-0.027127 0.239209,-0.014675 0.320805,0.029461 z m -1.044919,-0.026676 c 0.08452,0.085943 0.100014,0.1841214 0.05803,0.3673185 -0.06047,0.2629677 -0.183159,0.383375 -0.396493,0.3883549 -0.190525,0.00447 -0.30207,-0.1250422 -0.296578,-0.3443069 0.0061,-0.2413165 0.156409,-0.4627553 0.336146,-0.4950733 0.103654,-0.018644 0.234212,0.017929 0.298887,0.08371 z M 31.643626,3.066089 c 0.266692,0.1521514 0.412733,0.507547 0.339544,0.8263013 -0.02933,0.127787 -0.162952,0.5201908 -0.288624,0.8475553 -0.05198,0.1353494 -0.11866,0.3609542 -0.160721,0.5435932 -0.08658,0.3761645 -0.09491,0.5913009 -0.0295,0.7668214 0.02343,0.062886 0.05772,0.1541272 0.07616,0.2027365 0.05861,0.1544741 0.065,0.3925608 0.01622,0.6039104 -0.069,0.2982951 -0.194765,0.4886304 -0.415865,0.6286195 -0.263693,0.166969 -0.539478,0.1825488 -0.970731,0.054877 -0.71045,-0.210329 -1.123476,-0.6656724 -1.222191,-1.3473957 -0.04272,-0.2949525 -0.03339,-0.4754694 0.04174,-0.8079812 0.08798,-0.389416 0.230628,-0.7138724 0.469199,-1.0671694 0.101273,-0.1499625 0.339213,-0.425933 0.479253,-0.5558502 0.04665,-0.043248 0.107892,-0.1077669 0.136108,-0.1433322 0.08114,-0.1022714 0.331818,-0.315859 0.487396,-0.4152903 0.168863,-0.1078884 0.365365,-0.1892356 0.530567,-0.2195833 0.14622,-0.026856 0.388593,0.01209 0.51146,0.082191 z" /><path
             id="path2024"
             style="fill:#000000;fill-opacity:1;stroke:none;stroke-width:0.538814;stroke-dasharray:none;stroke-opacity:1"
             d="m 25.410264,15.480761 c 0.220047,0.309893 -0.245741,0.742597 -0.575259,0.534414 -0.230547,-0.145654 -0.13522,-0.508375 0.164434,-0.625653 0.139146,-0.05456 0.338849,-0.01013 0.410825,0.09124 z m 0.219467,0.926873 c 0.145753,0.124429 0.142962,0.390692 -0.0059,0.550948 -0.03957,0.04259 -0.130354,0.101637 -0.201774,0.131224 -0.30363,0.12566 -0.617025,-0.133809 -0.53205,-0.440524 0.08766,-0.31632 0.495959,-0.449706 0.739688,-0.241644 z m 0.728275,0.766258 c 0.0865,0.140087 0.0938,0.248103 0.029,0.43072 -0.09124,0.257178 -0.328025,0.413898 -0.556349,0.368263 -0.43222,-0.08637 -0.310347,-0.796622 0.158445,-0.923138 0.170353,-0.04597 0.288314,-0.0063 0.368894,0.124142 z m 2.163001,0.746099 c 0.196462,0.119994 0.305234,0.302576 0.349778,0.587126 0.05787,0.36967 -0.07768,0.721454 -0.347454,0.901723 -0.320496,0.214153 -0.642448,0.131282 -0.852431,-0.219536 -0.273309,-0.456516 -0.01308,-1.2341 0.44455,-1.328478 0.133177,-0.02744 0.304685,-0.0025 0.405556,0.05916 z m -1.325289,-0.104658 c 0.101954,0.114934 0.11553,0.240725 0.05081,0.470654 -0.09318,0.330037 -0.256483,0.474721 -0.527709,0.466601 -0.242226,-0.0072 -0.375808,-0.179338 -0.355171,-0.457569 0.02275,-0.306216 0.22746,-0.577395 0.457724,-0.606288 0.132788,-0.0167 0.296311,0.03864 0.374346,0.1266 z m 2.168066,-6.002026 c 0.329195,0.211389 0.492511,0.67285 0.379707,1.072908 -0.04521,0.160385 -0.239347,0.649932 -0.419337,1.057378 -0.07443,0.168456 -0.173178,0.450601 -0.237972,0.679817 -0.133387,0.472099 -0.157371,0.744892 -0.08524,0.972343 0.02581,0.0815 0.06368,0.19975 0.08408,0.26276 0.06475,0.200268 0.0581,0.503195 -0.01703,0.76844 -0.106206,0.374348 -0.277781,0.607677 -0.567281,0.770576 -0.345271,0.194296 -0.696462,0.195419 -1.236161,0.004 -0.889101,-0.31536 -1.385235,-0.921901 -1.468113,-1.794798 -0.03586,-0.377667 -0.01278,-0.606403 0.103349,-1.023812 0.135987,-0.488842 0.337359,-0.891444 0.662337,-1.324194 0.137954,-0.183684 0.457308,-0.518229 0.643243,-0.67382 0.06194,-0.05181 0.143728,-0.129621 0.181778,-0.172899 0.109417,-0.124452 0.441059,-0.378868 0.644826,-0.494671 0.221179,-0.125622 0.475773,-0.215705 0.687452,-0.243082 0.18736,-0.02422 0.492727,0.04168 0.644388,0.139071 z"
             inkscape:transform-center-x="-0.62570172"
             inkscape:transform-center-y="-1.656018" /><path
             id="path2026"
             style="fill:#000000;fill-opacity:1;stroke:none;stroke-width:0.538814;stroke-dasharray:none;stroke-opacity:1"
             d="m 21.143592,25.029006 c 0.277039,0.373288 -0.281358,0.912527 -0.689629,0.66599 -0.285647,-0.17249 -0.178422,-0.617637 0.184951,-0.76783 0.168745,-0.06985 0.41406,-0.0203 0.504678,0.10184 z m 0.292214,1.126709 c 0.181418,0.148549 0.184827,0.473769 0.007,0.672911 -0.04728,0.05291 -0.156771,0.127145 -0.243334,0.164951 -0.368006,0.160563 -0.757903,-0.149018 -0.661895,-0.525536 0.09903,-0.388307 0.594847,-0.560701 0.898214,-0.312327 z m 0.910213,0.918721 c 0.109373,0.169048 0.12109,0.300776 0.04656,0.525285 -0.104941,0.316174 -0.390431,0.513064 -0.670787,0.462655 -0.530712,-0.0954 -0.399944,-0.965555 0.169971,-1.130954 0.207111,-0.06011 0.352372,-0.01436 0.454254,0.142995 z m 2.66398,0.860676 c 0.243306,0.141948 0.381006,0.362368 0.4428,0.708799 0.08028,0.450065 -0.07641,0.882792 -0.401628,1.10921 -0.386365,0.268977 -0.782175,0.175215 -1.047947,-0.248216 -0.345933,-0.551094 -0.04777,-1.506681 0.509365,-1.632593 0.162128,-0.03664 0.372484,-0.01013 0.49741,0.0628 z m -1.62317,-0.09692 c 0.127632,0.137971 0.14745,0.291268 0.07425,0.573539 -0.105438,0.405186 -0.301389,0.585669 -0.633235,0.582074 -0.296363,-0.0032 -0.46413,-0.210236 -0.446058,-0.550471 0.01993,-0.374455 0.263258,-0.710369 0.544064,-0.751018 0.161945,-0.02344 0.363304,0.04027 0.460983,0.145871 z m 2.496443,-7.379719 c 0.407961,0.25046 0.619532,0.810154 0.491898,1.301304 -0.05115,0.196904 -0.275925,0.799223 -0.485516,1.300958 -0.08668,0.207441 -0.200148,0.554274 -0.273473,0.835683 -0.150944,0.5796 -0.173247,0.913271 -0.07919,1.189336 0.03369,0.09891 0.08302,0.24243 0.109557,0.318908 0.08435,0.243037 0.08398,0.613108 -10e-4,0.938754 -0.120223,0.4596 -0.324007,0.74852 -0.673795,0.954185 -0.41717,0.245307 -0.846553,0.254868 -1.511391,0.03368 -1.095251,-0.364375 -1.717505,-1.093473 -1.841315,-2.157453 -0.05358,-0.460342 -0.03118,-0.740197 0.100012,-1.252607 0.153689,-0.600105 0.389548,-1.096422 0.775767,-1.632436 0.163953,-0.227514 0.545825,-0.643475 0.769168,-0.837804 0.07439,-0.06469 0.172404,-0.161635 0.217814,-0.215367 0.130583,-0.154521 0.529544,-0.472922 0.775715,-0.619079 0.267206,-0.158555 0.576186,-0.274493 0.834311,-0.312853 0.228467,-0.03394 0.603546,0.03942 0.791492,0.154807 z" /></g><g
           inkscape:groupmode="layer"
           id="g2036"
           inkscape:label="Left Foot"
           style="fill:#000000;fill-opacity:1;stroke-width:1.79605"
           transform="translate(-1.0625e-6)"><path
             id="path2030"
             style="fill:#000000;fill-opacity:1;stroke:none;stroke-width:0.538814;stroke-dasharray:none;stroke-opacity:1"
             d="m 35.359898,5.1409812 c 0.04447,0.068053 0.06769,0.2720552 0.04191,0.3681166 -0.01355,0.050489 -0.05907,0.1451158 -0.101167,0.2102751 -0.07034,0.1088751 -0.08453,0.120216 -0.175275,0.13998 -0.08096,0.017635 -0.115173,0.011931 -0.189991,-0.031661 -0.114108,-0.06649 -0.161792,-0.1389238 -0.186607,-0.2835164 -0.04914,-0.2863442 0.148217,-0.6085406 0.352212,-0.5750091 0.07447,0.012242 0.216023,0.1061776 0.258907,0.1718158 z M 34.510714,4.4522024 c 0.116324,0.1937419 0.119837,0.436672 0.0096,0.6631353 -0.08439,0.1733266 -0.19215,0.2768429 -0.362394,0.3481293 -0.3535,0.1479678 -0.68061,-0.1414454 -0.645224,-0.5709292 0.01004,-0.1219983 0.02283,-0.1582691 0.109389,-0.3104587 0.11334,-0.1992852 0.194289,-0.2679406 0.375522,-0.3184921 0.207196,-0.057798 0.409922,0.016728 0.513135,0.1886154 z m 1.587667,0.7368204 c 0.04789,0.060983 0.09507,0.2388474 0.09518,0.3588289 6.7e-5,0.1127183 -0.09798,0.2809214 -0.191687,0.3286852 -0.14272,0.072747 -0.281324,0.00677 -0.359511,-0.1712041 -0.118854,-0.270506 0.0017,-0.593182 0.23512,-0.629464 0.06237,-0.00965 0.166209,0.043503 0.220893,0.1131545 z m 0.770884,8.177e-4 c 0.09688,0.1367742 0.129523,0.3662709 0.06759,0.4751965 -0.03812,0.067026 -0.145919,0.1241575 -0.235144,0.1246394 -0.258039,0.00135 -0.431174,-0.4013033 -0.265778,-0.618126 0.05938,-0.07783 0.197782,-0.1217657 0.279284,-0.088669 0.02807,0.011413 0.06419,0.025986 0.08026,0.032386 0.01607,0.00638 0.04928,0.039959 0.07379,0.074567 z m 0.626852,-0.3123899 c 0.05681,0.1216658 0.04767,0.2881113 -0.0202,0.3678262 C 37.323715,5.4240409 37.011775,5.2040438 37.02871,4.9298778 37.03141,4.8865118 37.05398,4.81504 37.07894,4.7710407 37.174,4.6033872 37.394391,4.6596023 37.496114,4.8774514 Z M 37.176018,0.53954847 c 0.156168,0.185441 0.261695,0.4283518 0.342072,0.78748173 0.0394,0.1759536 0.07221,0.3696533 0.07293,0.4304354 7.81e-4,0.060775 0.0094,0.1590565 0.0193,0.2183791 0.05731,0.3436947 0.03882,0.9416184 -0.03999,1.293115 C 37.408994,3.9884814 37.04004,4.5501684 36.584516,4.7697383 36.120738,4.9932865 35.645595,4.9416929 35.075409,4.6058845 34.825971,4.4589748 34.694772,4.3293073 34.586511,4.1227052 34.505701,3.9684849 34.456082,3.7217124 34.474202,3.5641423 c 0.04131,-0.3592692 0.266131,-0.7211582 0.529942,-0.8530518 0.168036,-0.08402 0.237657,-0.1436224 0.351936,-0.3013928 0.14207,-0.1961238 0.267585,-0.4799432 0.357776,-0.8090375 0.122939,-0.4485686 0.262958,-0.85017063 0.350729,-1.00595633 0.07353,-0.1305513 0.09938,-0.1596847 0.200584,-0.2263304 0.136221,-0.089705 0.153978,-0.096075 0.311424,-0.1115724 0.133432,-0.013143 0.328854,0.040733 0.436255,0.1202655 0.0385,0.028448 0.111909,0.1016111 0.163167,0.1624844 z"
             inkscape:export-filename="Logo-Colour-2.png"
             inkscape:export-xdpi="96"
             inkscape:export-ydpi="96" /><path
             id="path2032"
             style="fill:#000000;fill-opacity:1;stroke:none;stroke-width:0.538814;stroke-dasharray:none;stroke-opacity:1"
             d="m 33.599151,15.334446 c 0.06657,0.07852 0.127007,0.331957 0.109123,0.45731 -0.0094,0.0659 -0.05247,0.192682 -0.09569,0.281757 -0.07222,0.148829 -0.08842,0.165467 -0.200019,0.205282 -0.09958,0.03547 -0.14364,0.034 -0.244809,-0.0088 -0.154281,-0.06511 -0.225564,-0.148628 -0.278979,-0.326883 -0.105774,-0.353012 0.09432,-0.791689 0.357106,-0.782886 0.09594,0.0033 0.289066,0.09843 0.353251,0.174164 z M 32.421415,14.60528 c 0.1765,0.225213 0.218061,0.53095 0.113307,0.834632 -0.08014,0.232414 -0.200445,0.380632 -0.404598,0.498465 -0.423932,0.244577 -0.881265,-0.06665 -0.902127,-0.614034 -0.0059,-0.155483 0.0046,-0.20332 0.09078,-0.409436 0.11274,-0.269899 0.204507,-0.369757 0.425706,-0.463247 0.252888,-0.106878 0.520324,-0.0462 0.676929,0.153621 z m 2.117842,0.668539 c 0.06979,0.06905 0.156541,0.28558 0.175013,0.436847 0.01736,0.142113 -0.08088,0.370319 -0.191947,0.445929 -0.169163,0.115159 -0.354307,0.05468 -0.480227,-0.156881 -0.191421,-0.321592 -0.08843,-0.748268 0.200894,-0.832333 0.07731,-0.02245 0.216577,0.02758 0.296282,0.106432 z m 0.973826,-0.125465 c 0.143254,0.156563 0.219509,0.440604 0.157892,0.588124 -0.03791,0.09078 -0.16535,0.18052 -0.277983,0.195762 -0.325718,0.04407 -0.60587,-0.435271 -0.430055,-0.735826 0.06311,-0.107883 0.231231,-0.186007 0.339231,-0.157647 0.0372,0.0098 0.08504,0.02223 0.106309,0.02765 0.02127,0.0054 0.06835,0.04231 0.10459,0.08193 z m 0.744096,-0.496795 c 0.09032,0.144097 0.104191,0.355478 0.03063,0.467139 -0.164958,0.250399 -0.592552,0.02418 -0.613008,-0.324313 -0.0033,-0.05512 0.0144,-0.148954 0.0392,-0.208539 0.09448,-0.22701 0.381433,-0.192296 0.543172,0.06572 z M 35.19071,9.2340627 c 0.225563,0.208207 0.395926,0.497198 0.552275,0.9368583 0.07666,0.215393 0.14763,0.454275 0.157816,0.530806 0.0102,0.07652 0.03615,0.199022 0.0577,0.272211 0.124859,0.423987 0.192763,1.180993 0.146868,1.637161 -0.09395,0.933784 -0.474238,1.702619 -1.016093,2.054257 -0.551652,0.358018 -1.159684,0.370934 -1.931139,0.04107 -0.337491,-0.144311 -0.522998,-0.286287 -0.691281,-0.529039 -0.125612,-0.181209 -0.225989,-0.484222 -0.227119,-0.685907 -0.0027,-0.459812 0.226068,-0.953046 0.539155,-1.162662 0.19943,-0.133511 0.278257,-0.220122 0.398523,-0.437812 0.14951,-0.270629 0.264725,-0.649121 0.328412,-1.078905 0.08681,-0.585819 0.202367,-1.1152113 0.289452,-1.3260613 0.07295,-0.176687 0.101156,-0.21767 0.218808,-0.31832 0.158367,-0.135474 0.17982,-0.146425 0.376319,-0.191818 0.166544,-0.03843 0.421592,-0.0027 0.569393,0.08005 0.05298,0.02955 0.156856,0.109765 0.2309,0.178109 z" /><path
             id="path2034"
             style="fill:#000000;fill-opacity:1;stroke:none;stroke-width:0.538814;stroke-dasharray:none;stroke-opacity:1"
             d="m 30.055093,25.47947 c 0.07198,0.103991 0.11653,0.419873 0.0804,0.570032 -0.01897,0.07893 -0.08586,0.227608 -0.148622,0.330407 -0.104872,0.171763 -0.126479,0.189923 -0.266782,0.224086 -0.125166,0.03049 -0.178615,0.02296 -0.296776,-0.04186 -0.180209,-0.09887 -0.25736,-0.209528 -0.301934,-0.433111 -0.08826,-0.442771 0.205301,-0.950664 0.523931,-0.906415 0.116326,0.01619 0.340343,0.156597 0.40975,0.25688 z m -1.349118,-1.037019 c 0.188925,0.296392 0.204451,0.673496 0.04234,1.029389 -0.124063,0.272391 -0.287356,0.437269 -0.549157,0.554494 -0.543632,0.24329 -1.064301,-0.193545 -1.027052,-0.861835 0.01056,-0.189828 0.02895,-0.246641 0.157259,-0.486292 0.168007,-0.313812 0.291051,-0.423527 0.570802,-0.508975 0.31983,-0.09767 0.63818,0.01025 0.805808,0.273219 z m 2.49955,1.083304 c 0.077,0.09286 0.157732,0.367255 0.162876,0.553564 0.0048,0.175028 -0.14074,0.439989 -0.284491,0.517751 -0.218935,0.118454 -0.437216,0.02127 -0.566177,-0.252071 -0.196046,-0.415495 -0.02196,-0.921196 0.339583,-0.986486 0.09658,-0.01745 0.260278,0.06117 0.348203,0.167243 z m 1.198865,-0.02826 c 0.156332,0.208673 0.216582,0.563808 0.124796,0.735319 -0.0565,0.105543 -0.221777,0.19841 -0.360543,0.202518 -0.401227,0.01206 -0.687151,-0.606637 -0.438917,-0.949674 0.08912,-0.123137 0.302538,-0.19667 0.43066,-0.148392 0.04411,0.01664 0.100893,0.03789 0.126153,0.04721 0.02524,0.0093 0.07831,0.06017 0.11784,0.112978 z m 0.961906,-0.509135 c 0.09339,0.186753 0.08607,0.445566 -0.01619,0.57196 -0.229294,0.283429 -0.723514,-0.04625 -0.708527,-0.472625 0.0024,-0.06743 0.03455,-0.179292 0.07155,-0.24858 0.140892,-0.263989 0.485952,-0.185148 0.653165,0.149248 z M 32.68889,18.264455 c 0.250544,0.281974 0.424697,0.655142 0.564581,1.209731 0.06855,0.271724 0.1276,0.571252 0.131234,0.665614 0.0037,0.09436 0.02121,0.24663 0.03905,0.338378 0.103368,0.531512 0.09935,1.460714 -0.0087,2.009563 -0.221115,1.123503 -0.771627,2.009876 -1.470942,2.368303 -0.711959,0.364933 -1.453013,0.30303 -2.353635,-0.196582 -0.393993,-0.218567 -0.603392,-0.414893 -0.78031,-0.731568 -0.132065,-0.236383 -0.219426,-0.617692 -0.197778,-0.863067 0.04937,-0.559479 0.384011,-1.130062 0.788813,-1.344992 0.257826,-0.136943 0.363642,-0.232146 0.53483,-0.481516 0.212818,-0.310002 0.396261,-0.755548 0.522896,-1.270043 0.172616,-0.701282 0.373735,-1.330281 0.503782,-1.575563 0.108938,-0.205541 0.147941,-0.251776 0.302563,-0.35915 0.208131,-0.144515 0.235476,-0.155095 0.479686,-0.185197 0.206974,-0.02546 0.513101,0.05064 0.683421,0.170031 0.06107,0.0427 0.178238,0.153499 0.260477,0.246059 z" /></g></g><g
         id="g2046"
         inkscape:label="Time"
         style="fill:#000000;fill-opacity:1;stroke-width:2.25004"
         transform="matrix(0.44443895,0,0,0.44442874,-6.5362423,15.823285)"><text
           xml:space="preserve"
           style="font-style:normal;font-variant:normal;font-weight:normal;font-stretch:normal;font-size:17.1319px;font-family:Dosis;-inkscape-font-specification:'Dosis, @wght=400';font-variant-ligatures:normal;font-variant-caps:normal;font-variant-numeric:normal;font-variant-east-asian:normal;font-variation-settings:'wght' 400;text-align:center;letter-spacing:3.71484px;text-anchor:middle;fill:#000000;fill-opacity:1;stroke-width:0.450011;stroke-linecap:square;stroke-linejoin:round;stroke-miterlimit:0;paint-order:markers fill stroke"
           x="75.104294"
           y="45.83651"
           id="text2042"
           inkscape:label="Text"><tspan
             sodipodi:role="line"
             id="tspan2060"
             x="76.961716"
             y="45.83651">Time</tspan></text><path
           style="display:none;fill:#000000;fill-opacity:1;stroke:#fefae0;stroke-width:0.675016;stroke-dasharray:none;stroke-opacity:1"
           d="m 61.78192,34.849326 c -0.28964,-0.06821 -0.65452,-0.292858 -1.03361,-0.636356 -0.19853,-0.179892 -0.50888,-0.443701 -0.68965,-0.586244 -0.52305,-0.412419 -0.57962,-0.520687 -0.36206,-0.692867 0.10309,-0.08158 0.16612,-0.09406 0.40013,-0.07926 0.24016,0.0152 0.29768,0.03693 0.42481,0.160549 0.18555,0.180419 0.29862,0.188086 0.29828,0.02022 -3.3e-4,-0.193949 -0.0781,-0.433992 -0.35989,-1.11226 -0.34852,-0.838789 -0.34647,-1.063873 0.0105,-1.15324 0.21523,-0.05388 0.36929,0.148225 0.59161,0.776108 0.18802,0.531017 0.29773,0.728433 0.36648,0.659459 0.0445,-0.04464 0.0393,-0.216892 -0.0293,-0.974991 -0.0542,-0.599014 -0.0529,-0.665323 0.015,-0.769283 0.0842,-0.128943 0.24179,-0.183062 0.40982,-0.140754 0.18225,0.04589 0.2443,0.268358 0.28224,1.011894 0.0224,0.438211 0.0535,0.684475 0.0926,0.731727 0.0963,0.11644 0.13564,0.01846 0.18066,-0.450296 0.0549,-0.572001 0.11896,-0.805252 0.24922,-0.908037 0.17456,-0.137752 0.42954,-0.022 0.48229,0.218947 0.0148,0.06767 0.005,0.291563 -0.0224,0.49754 -0.0909,0.689512 -0.10305,0.887831 -0.0545,0.887831 0.0255,0 0.0904,-0.145385 0.14415,-0.32308 0.18814,-0.621399 0.32722,-0.78468 0.59009,-0.692749 0.25278,0.0884 0.27092,0.317388 0.0756,0.953993 -0.0743,0.242084 -0.17235,0.673329 -0.21794,0.958325 -0.13278,0.830159 -0.32906,1.225287 -0.71486,1.439106 -0.40257,0.223117 -0.76748,0.28894 -1.12935,0.203714 z"
           id="path2044"
           inkscape:label="Hand" /></g><g
         id="g2054"
         inkscape:label="Family"
         style="fill:#000000;fill-opacity:1;stroke-width:0.926217"
         transform="matrix(1.0796685,0,0,1.0796515,-2.2358172,-0.11979131)"><text
           xml:space="preserve"
           style="font-style:normal;font-variant:normal;font-weight:normal;font-stretch:normal;font-size:17.1319px;font-family:Dosis;-inkscape-font-specification:'Dosis, Normal';font-variant-ligatures:normal;font-variant-caps:normal;font-variant-numeric:normal;font-variant-east-asian:normal;text-align:center;text-anchor:middle;fill:#000000;fill-opacity:1;stroke-width:0.185244;stroke-linecap:square;stroke-linejoin:round;stroke-miterlimit:0;paint-order:markers fill stroke"
           x="37.081554"
           y="27.862631"
           id="text2050"
           inkscape:label="Text"><tspan
             sodipodi:role="line"
             id="tspan2048"
             style="font-style:normal;font-variant:normal;font-weight:normal;font-stretch:normal;font-size:17.1319px;font-family:Dosis;-inkscape-font-specification:'Dosis, Normal';font-variant-ligatures:normal;font-variant-caps:normal;font-variant-numeric:normal;font-variant-east-asian:normal;fill:#000000;fill-opacity:1;stroke-width:0.185244"
             x="37.081554"
             y="27.862631">Family</tspan></text><path
           style="display:none;fill:#000000;fill-opacity:1;stroke:#fefae0;stroke-width:0.277865;stroke-dasharray:none;stroke-opacity:1"
           d="m 47.083283,16.550061 c -0.69987,-0.188072 -0.985318,-0.591094 -1.133896,-1.600939 -0.03957,-0.268967 -0.132184,-0.683999 -0.205803,-0.922293 -0.209558,-0.678313 -0.189971,-0.916829 0.08384,-1.020931 0.218938,-0.08324 0.411046,0.157764 0.565103,0.708937 0.07353,0.263079 0.131344,0.360295 0.183337,0.308302 0.01238,-0.01238 -0.009,-0.249222 -0.04753,-0.526312 -0.124963,-0.898857 -0.07653,-1.123867 0.241915,-1.123867 0.265477,0 0.362007,0.232038 0.424916,1.021399 0.03355,0.420891 0.07942,0.52838 0.173222,0.405814 0.04081,-0.05333 0.0713,-0.271833 0.09017,-0.646194 0.0318,-0.63096 0.08622,-0.928662 0.190971,-1.044697 0.08231,-0.09117 0.312815,-0.100569 0.422504,-0.01723 0.155418,0.118079 0.169083,0.263529 0.09433,1.004044 -0.07322,0.725371 -0.06552,0.868251 0.04454,0.826017 0.07708,-0.02958 0.145374,-0.172556 0.275204,-0.576144 0.1652,-0.513538 0.287086,-0.735576 0.445172,-0.810962 0.128227,-0.06115 0.155717,-0.06068 0.282265,0.0047 0.263577,0.136301 0.248767,0.327916 -0.08333,1.078105 -0.124053,0.280231 -0.254352,0.604427 -0.289555,0.720435 -0.07528,0.248067 -0.08497,0.545164 -0.01779,0.545164 0.02594,0 0.125636,-0.06305 0.22153,-0.140112 0.282924,-0.227365 0.771439,-0.237055 0.914872,-0.01815 0.09758,0.148925 0.04276,0.234551 -0.348947,0.545031 -0.177173,0.140433 -0.496084,0.410459 -0.708689,0.600059 -0.470807,0.41986 -0.692957,0.56403 -1.03236,0.66998 -0.307821,0.09609 -0.457873,0.09796 -0.78598,0.0098 z"
           id="path2052"
           inkscape:label="Hand" /></g></g><g
       inkscape:groupmode="layer"
       id="layer7"
       inkscape:label="Hand-SimpleType"
       style="display:none"
       sodipodi:insensitive="true"><g
         inkscape:groupmode="layer"
         id="g31362"
         inkscape:label="Cloud"
         transform="rotate(-105.71821,113.94483,72.958784)"
         style="fill:#000000;stroke-width:1.0516"><rect
           style="font-variation-settings:'wght' 600;display:none;fill:#000000;fill-opacity:0;stroke:none;stroke-width:0.3;stroke-linecap:round;stroke-linejoin:round;stroke-miterlimit:0;stroke-opacity:1;paint-order:stroke fill markers"
           id="rect31348"
           width="67.408096"
           height="24.249119"
           x="17.6926"
           y="-55.711563"
           transform="rotate(105.71821)"
           rx="3.4222419"
           ry="3.8155074" /></g><g
         inkscape:groupmode="layer"
         id="g34369"
         inkscape:label="Cloud 2"
         transform="rotate(-105.71821,169.7333,110.55622)"
         style="fill:#000000;stroke-width:1.0516"><path
           id="path34436"
           style="font-variation-settings:'wght' 600;display:inline;fill:none;fill-opacity:1;stroke:url(#linearGradient65280);stroke-width:1.97414;stroke-linecap:round;stroke-linejoin:round;stroke-miterlimit:0;stroke-dasharray:none;stroke-dashoffset:0;stroke-opacity:0.898039;paint-order:stroke fill markers"
           d="m 151.86085,-52.201412 c -1.50264,7.908267 9.65581,5.139067 9.90316,8.603662 0.0559,0.783655 -0.41967,1.871124 -0.63574,2.628352 1.08492,0.3521 1.77731,0.290938 1.66577,1.726473 -0.11277,1.451367 -0.80186,4.140573 -1.73886,5.839531 -0.51228,0.928866 -1.28871,-0.331578 -1.92205,0.210546 -0.61719,0.52829 -0.21145,2.826603 -1.28243,3.178146 -3.045,0.999502 -10.75467,-6.047888 -13.17395,1.584499 -1.61327,5.73182 1.63521,11.660745 7.25562,13.242509 5.62041,1.581742 11.48433,-1.782679 13.0973,-7.514581 0.0109,-0.04276 0.0211,-0.08566 0.0309,-0.128708 6.00052,0.281822 11.43644,-3.699403 13.09497,-9.590647 l 1e-4,3.4e-5 c 1.63247,-5.811114 -0.83822,-11.963902 -5.98384,-14.90205 1.02882,-5.478444 -2.30197,-10.486974 -7.56351,-11.970488 -0.78236,-0.220179 -2.4485,-0.493576 -5.00316,-0.507061 -2.03634,-0.01075 -3.4839,-3.318825 -4.03469,-5.388152 -0.78655,2.160637 -3.50423,11.90703 -3.70961,12.987935 z"
           sodipodi:nodetypes="sscsssscsccccccscs" /><ellipse
           style="font-variation-settings:'wght' 600;display:inline;fill:none;fill-opacity:1;stroke:url(#linearGradient35201);stroke-width:1.97414;stroke-linecap:round;stroke-linejoin:round;stroke-miterlimit:0;stroke-dasharray:none;stroke-dashoffset:0;stroke-opacity:1;paint-order:stroke fill markers"
           id="path34450"
           cx="-79.106537"
           cy="-137.57858"
           transform="rotate(105.71821)"
           rx="4.1963677"
           ry="4.1147738" /><ellipse
           style="font-variation-settings:'wght' 600;display:inline;fill:none;fill-opacity:1;stroke:url(#linearGradient35199);stroke-width:1.97414;stroke-linecap:round;stroke-linejoin:round;stroke-miterlimit:0;stroke-dasharray:none;stroke-dashoffset:0;stroke-opacity:1;paint-order:stroke fill markers"
           id="path34446"
           cx="79.037964"
           cy="137.53824"
           transform="rotate(-74.28179)"
           rx="2.5644472"
           ry="2.5145841" /><circle
           style="font-variation-settings:'wght' 600;opacity:1;vector-effect:none;fill:#84a9c0;fill-opacity:0.960784;stroke:none;stroke-width:1.97414;stroke-linecap:round;stroke-linejoin:round;stroke-miterlimit:0;stroke-dasharray:none;stroke-dashoffset:0;stroke-opacity:0.803922;-inkscape-stroke:none;paint-order:stroke fill markers;stop-color:#000000;stop-opacity:1"
           id="circle52110"
           cx="-61.973053"
           cy="-157.82161"
           r="3.106859"
           transform="rotate(105.71821)" /><text
           xml:space="preserve"
           style="font-style:normal;font-variant:normal;font-weight:normal;font-stretch:normal;font-size:7.614px;font-family:Dosis;-inkscape-font-specification:'Dosis, @wght=400';font-variant-ligatures:normal;font-variant-caps:normal;font-variant-numeric:normal;font-variant-east-asian:normal;font-variation-settings:'wght' 400;text-align:center;letter-spacing:1.651px;text-anchor:middle;fill:#7a408c;fill-opacity:1;stroke:none;stroke-width:0.2;stroke-linecap:square;stroke-linejoin:round;stroke-miterlimit:0;stroke-opacity:1;paint-order:markers fill stroke"
           x="-76.533638"
           y="-108.90272"
           id="text55222"
           inkscape:label="Text"
           transform="matrix(-0.27090952,0.96261676,-0.96259463,-0.27090328,0,0)"><tspan
             sodipodi:role="line"
             id="tspan55220"
             x="-75.708138"
             y="-108.90272"
             style="fill:#7a408c;fill-opacity:1;stroke:none;stroke-width:0.2;stroke-opacity:1">Time</tspan></text><text
           xml:space="preserve"
           style="font-style:normal;font-variant:normal;font-weight:normal;font-stretch:normal;font-size:18.4966px;font-family:Dosis;-inkscape-font-specification:'Dosis, Normal';font-variant-ligatures:normal;font-variant-caps:normal;font-variant-numeric:normal;font-variant-east-asian:normal;text-align:center;text-anchor:middle;fill:#7a408c;fill-opacity:1;stroke:none;stroke-width:0.200001;stroke-linecap:square;stroke-linejoin:round;stroke-miterlimit:0;stroke-opacity:1;paint-order:markers fill stroke"
           x="-79.702545"
           y="-114.95762"
           id="text55226"
           inkscape:label="Text"
           transform="matrix(-0.27090853,0.9626133,-0.96259809,-0.27090426,0,0)"><tspan
             sodipodi:role="line"
             id="tspan55224"
             style="font-style:normal;font-variant:normal;font-weight:normal;font-stretch:normal;font-size:18.4966px;font-family:Dosis;-inkscape-font-specification:'Dosis, Normal';font-variant-ligatures:normal;font-variant-caps:normal;font-variant-numeric:normal;font-variant-east-asian:normal;fill:#7a408c;fill-opacity:1;stroke:none;stroke-width:0.200001;stroke-opacity:1"
             x="-79.702545"
             y="-114.95762">Family</tspan></text></g><g
         inkscape:groupmode="layer"
         id="g55591"
         inkscape:label="Cloud"
         transform="rotate(-105.71821,175.93224,69.330529)"
         style="fill:#000000;stroke-width:1.0516"><text
           xml:space="preserve"
           style="font-style:normal;font-variant:normal;font-weight:normal;font-stretch:normal;font-size:7.614px;font-family:Dosis;-inkscape-font-specification:'Dosis, @wght=400';font-variant-ligatures:normal;font-variant-caps:normal;font-variant-numeric:normal;font-variant-east-asian:normal;font-variation-settings:'wght' 400;text-align:center;letter-spacing:1.651px;text-anchor:middle;fill:#7a408c;fill-opacity:1;stroke:none;stroke-width:0.2;stroke-linecap:square;stroke-linejoin:round;stroke-miterlimit:0;stroke-opacity:1;paint-order:markers fill stroke"
           x="7.91119"
           y="-86.548561"
           id="text55577"
           inkscape:label="Text"
           transform="matrix(-0.27090952,0.96261675,-0.96259463,-0.27090328,0,0)"><tspan
             sodipodi:role="line"
             id="tspan55575"
             x="8.7366905"
             y="-86.548561"
             style="fill:#7a408c;fill-opacity:1;stroke:none;stroke-width:0.2;stroke-opacity:1">Time</tspan></text><text
           xml:space="preserve"
           style="font-style:normal;font-variant:normal;font-weight:normal;font-stretch:normal;font-size:18.4966px;font-family:Dosis;-inkscape-font-specification:'Dosis, Normal';font-variant-ligatures:normal;font-variant-caps:normal;font-variant-numeric:normal;font-variant-east-asian:normal;text-align:center;text-anchor:middle;fill:#7a408c;fill-opacity:1;stroke:none;stroke-width:0.200001;stroke-linecap:square;stroke-linejoin:round;stroke-miterlimit:0;stroke-opacity:1;paint-order:markers fill stroke"
           x="4.7425785"
           y="-92.603539"
           id="text55581"
           inkscape:label="Text"
           transform="matrix(-0.27090853,0.96261329,-0.9625981,-0.27090426,0,0)"><tspan
             sodipodi:role="line"
             id="tspan55579"
             style="font-style:normal;font-variant:normal;font-weight:normal;font-stretch:normal;font-size:18.4966px;font-family:Dosis;-inkscape-font-specification:'Dosis, Normal';font-variant-ligatures:normal;font-variant-caps:normal;font-variant-numeric:normal;font-variant-east-asian:normal;fill:#7a408c;fill-opacity:1;stroke:none;stroke-width:0.200001;stroke-opacity:1"
             x="4.742579"
             y="-92.603539">Family</tspan></text><g
           inkscape:groupmode="layer"
           id="g55589"
           inkscape:label="Cloud 1"
           transform="translate(-56.129237,24.078088)"
           style="font-variation-settings:'wght' 600;opacity:1;vector-effect:none;fill:none;fill-opacity:1;stroke:url(#linearGradient55232);stroke-width:1.97414;stroke-linecap:round;stroke-linejoin:round;stroke-miterlimit:0;stroke-dasharray:none;stroke-dashoffset:0;stroke-opacity:0.898039;-inkscape-stroke:none;paint-order:stroke fill markers;stop-color:#000000;stop-opacity:1"><circle
             style="font-variation-settings:'wght' 600;display:inline;vector-effect:none;fill:none;fill-opacity:1;stroke:url(#linearGradient65282);stroke-width:1.97414;stroke-linecap:round;stroke-linejoin:round;stroke-miterlimit:0;stroke-dasharray:none;stroke-dashoffset:0;stroke-opacity:0.898039;-inkscape-stroke:none;paint-order:stroke fill markers;stop-color:#000000;stop-opacity:1"
             id="circle55583"
             cx="-91.303772"
             cy="-137.47801"
             r="11.012215"
             transform="rotate(105.71821)" /><circle
             style="font-variation-settings:'wght' 600;display:inline;vector-effect:none;fill:#000000;fill-opacity:0;stroke:url(#linearGradient65284);stroke-width:1.97414;stroke-linecap:round;stroke-linejoin:round;stroke-miterlimit:0;stroke-dasharray:none;stroke-dashoffset:0;stroke-opacity:0.898039;-inkscape-stroke:none;paint-order:stroke fill markers;stop-color:#000000;stop-opacity:1"
             id="circle55585"
             cx="-79.574806"
             cy="-148.08577"
             r="12.235794"
             transform="rotate(105.71821)" /><path
             id="path55587"
             style="font-variation-settings:'wght' 600;opacity:1;vector-effect:none;fill:none;fill-opacity:1;stroke:url(#linearGradient65286);stroke-width:1.97414;stroke-linecap:round;stroke-linejoin:round;stroke-miterlimit:0;stroke-dasharray:none;stroke-dashoffset:0;stroke-opacity:0.898039;-inkscape-stroke:none;paint-order:stroke fill markers;stop-color:#000000;stop-opacity:1"
             d="m 150.55028,-19.56232 c -6.50494,-1.830688 -10.29417,-8.588055 -8.46349,-15.093 0.53692,-1.907827 1.17102,-3.195046 1.84805,-5.434766 0.67703,-2.23972 1.74325,-7.228614 1.86955,-8.642629 0.0205,-0.229624 4.73054,5.546956 6.03517,5.322244 1.72546,-0.297198 3.54301,-0.214131 5.34023,0.291661 6.50495,1.830688 10.29418,8.588055 8.46349,15.093 -1.83069,6.504945 -8.58805,10.294178 -15.093,8.46349 z"
             sodipodi:nodetypes="sszsssss" /></g></g></g></g><g
     inkscape:groupmode="layer"
     id="g838"
     inkscape:label="Rings-Black"
     transform="translate(-14.223217,-35.842179)"
     inkscape:export-filename="FT-Logo-Black.svg"
     inkscape:export-xdpi="300"
     inkscape:export-ydpi="300"
     style="fill:#000000"><g
       id="g826"
       inkscape:label="InterwinedRings"
       style="font-variation-settings:'wght' 600;opacity:1;vector-effect:none;fill:#000000;fill-opacity:1;stroke:url(#linearGradient844);stroke-width:1.55918;stroke-linecap:round;stroke-linejoin:round;stroke-miterlimit:0;stroke-dasharray:none;stroke-dashoffset:0;stroke-opacity:0.898039;-inkscape-stroke:none;paint-order:stroke fill markers;stop-color:#000000;stop-opacity:1"
       transform="matrix(1.2661376,0,0,1.2661376,-155.97324,-139.29746)"><path
         style="color:#000000;fill:#000000;fill-opacity:1;stroke:none;stroke-width:1.55918;stroke-opacity:1;-inkscape-stroke:none"
         d="m 159.54687,138.32617 c -7.29108,0 -13.22265,5.93157 -13.22265,13.22266 0,7.29109 5.93157,13.22265 13.22265,13.22265 7.29109,0 13.22266,-5.93156 13.22266,-13.22265 0,-7.29109 -5.93157,-13.22266 -13.22266,-13.22266 z m 0,1.97266 c 6.22419,0 11.24805,5.02581 11.24805,11.25 0,6.22418 -5.02386,11.24804 -11.24805,11.24804 -6.22418,0 -11.25,-5.02386 -11.25,-11.24804 0,-6.22419 5.02582,-11.25 11.25,-11.25 z"
         id="path804" /><path
         style="color:#000000;display:inline;fill:#000000;fill-opacity:1;stroke:none;stroke-width:2.51219;stroke-opacity:1;-inkscape-stroke:none"
         d="m 147.64453,149.08789 c -7.29109,0 -13.22266,5.93157 -13.22266,13.22266 0,7.29108 5.93157,13.22265 13.22266,13.22265 7.29109,0 13.22266,-5.93157 13.22266,-13.22265 0,-7.29109 -5.93157,-13.22266 -13.22266,-13.22266 z m 0,1.97461 c 6.22419,0 11.24805,5.02386 11.24805,11.24805 0,6.22418 -5.02386,11.24804 -11.24805,11.24804 -6.22418,0 -11.25,-5.02386 -11.25,-11.24804 0,-6.22419 5.02582,-11.24805 11.25,-11.24805 z"
         id="path806" /><path
         style="color:#000000;display:inline;fill:#000000;fill-opacity:0.960784;stroke:none;stroke-width:2.51219;stroke-opacity:1;-inkscape-stroke:none"
         d="m 167.1582,150.34961 c -7.29109,0 -13.22265,5.93157 -13.22265,13.22266 0,2.0124 0.44505,3.93167 1.26172,5.64453 -0.10239,-0.21475 -0.0281,-0.16458 -0.0684,0.0176 -0.0403,0.18216 -0.13896,0.47529 -0.28321,0.81055 -0.28849,0.67053 -0.75061,1.52238 -1.22656,2.33985 -0.47595,0.81746 -0.96695,1.60531 -1.33008,2.19335 -0.18156,0.29403 -0.32872,0.53437 -0.4375,0.72461 -0.0544,0.0951 -0.0967,0.1683 -0.14648,0.28125 -0.0249,0.0565 -0.0616,0.0923 -0.0918,0.3086 -0.008,0.0541 -0.0146,0.12288 -0.006,0.22656 0.004,0.0518 0.0131,0.11366 0.0332,0.18555 0.0201,0.0719 0.10513,0.24356 0.10547,0.24414 3.5e-4,5.7e-4 0.22218,0.25742 0.22266,0.25781 4.8e-4,3.9e-4 0.31189,0.17167 0.3125,0.17188 6.1e-4,2e-4 0.28831,0.0527 0.28906,0.0527 7.5e-4,2e-5 0.15302,-0.007 0.21094,-0.0176 1.11374,-0.20871 6.40459,-0.5681 8.625,-0.52539 2.27344,0.0437 3.68314,0.30664 5.75195,0.30664 7.2911,0 13.22266,-5.93156 13.22266,-13.22265 0,-7.29109 -5.93157,-13.22266 -13.22266,-13.22266 z m 0,1.97461 c 6.22418,0 11.24805,5.02386 11.24805,11.24805 0,6.22419 -5.02385,11.25 -11.24805,11.25 -1.89505,0 -3.30757,-0.26042 -5.71289,-0.30665 -1.92646,-0.0371 -4.87725,0.21056 -7.07422,0.4375 0.30299,-0.49111 0.60622,-0.97503 0.95508,-1.57421 0.49565,-0.85131 0.98449,-1.74497 1.33203,-2.55274 0.17378,-0.40388 0.31437,-0.78412 0.39844,-1.16406 0.0841,-0.37994 0.1667,-0.78143 -0.0781,-1.29492 -0.69038,-1.44798 -1.06836,-3.07325 -1.06836,-4.79492 0,-6.22419 5.02385,-11.24805 11.24804,-11.24805 z m -14.5332,22.73242 c -5e-5,0 0.0171,0.003 0.0195,0.004 -0.046,0.008 -0.18448,0.006 -0.22656,0.0137 0.0562,-0.0105 0.20778,-0.0176 0.20703,-0.0176 z"
         id="path808" /><path
         id="path810"
         style="color:#000000;display:none;fill:#000000;fill-opacity:0.898039;stroke:none;stroke-width:1.55918;stroke-opacity:1;-inkscape-stroke:none"
         d="m 146.45256,153.39425 2.05517,0.33745 c -0.13821,-0.70592 -0.21084,-1.43568 -0.21084,-2.18281 0,-1.29151 0.21688,-2.53144 0.61547,-3.68556 l -1.98644,-0.262 c -0.39087,1.24709 -0.60152,2.57325 -0.60152,3.94756 0,0.62623 0.0435,1.24209 0.12816,1.84536 z" /><path
         id="path812"
         style="color:#000000;display:inline;fill:#000000;fill-opacity:1;stroke:none;stroke-width:1.55918;stroke-opacity:1;-inkscape-stroke:none"
         d="m 159.54685,138.32592 c -5.91676,0 -10.93814,3.90637 -12.62093,9.27541 l 1.98644,0.262 c 1.52232,-4.40794 5.70183,-7.5644 10.63449,-7.5644 6.22418,0 11.24789,5.02578 11.24789,11.24996 0,6.22417 -5.02371,11.24789 -11.24789,11.24789 -5.47704,0 -10.02592,-3.89009 -11.03912,-9.06508 l -2.05517,-0.33745 c 0.90057,6.42055 6.42944,11.37709 13.09429,11.37709 7.29108,0 13.22245,-5.93137 13.22245,-13.22245 0,-7.29108 -5.93137,-13.22297 -13.22245,-13.22297 z" /><path
         id="path814"
         style="color:#000000;display:none;fill:#000000;fill-opacity:0.898039;stroke:none;stroke-width:1.55918;stroke-opacity:1;-inkscape-stroke:none"
         d="m 160.80931,161.07337 -1.97353,0.0966 c 0.0376,0.37502 0.0568,0.75537 0.0568,1.1405 0,1.30291 -0.22008,2.5534 -0.62529,3.71605 l 1.97973,0.28939 c 0.4026,-1.26395 0.62011,-2.6098 0.62011,-4.00544 0,-0.41714 -0.0199,-0.82976 -0.0579,-1.23714 z" /><path
         id="path816"
         style="color:#000000;display:inline;fill:#000000;fill-opacity:0.898039;stroke:none;stroke-width:2.51219;stroke-opacity:1;-inkscape-stroke:none"
         d="m 147.64473,149.08806 c -7.29108,0 -13.22296,5.93136 -13.22296,13.22245 0,7.29107 5.93188,13.22244 13.22296,13.22244 5.89544,0 10.90165,-3.87787 12.60234,-9.217 l -1.97973,-0.28939 c -1.53054,4.39146 -5.70133,7.53184 -10.62261,7.53184 -6.22417,0 -11.24995,-5.02372 -11.24995,-11.24789 0,-6.22419 5.02578,-11.2479 11.24995,-11.2479 5.83907,0 10.62155,4.42142 11.19105,10.1074 l 1.97353,-0.0966 c -0.62577,-6.71318 -6.29063,-11.98531 -13.16458,-11.98531 z" /><path
         id="path818"
         style="color:#000000;display:inline;fill:#000000;fill-opacity:0.960784;stroke:none;stroke-width:2.51219;stroke-opacity:1;-inkscape-stroke:none"
         d="m 157.33665,158.07769 -1.28313,-1.6769 c -1.33962,2.06719 -2.11821,4.53028 -2.11821,7.17165 0,1.96589 0.42516,3.84272 1.20612,5.52525 0.002,0.0256 0.002,0.0726 -0.0124,0.13694 -0.0403,0.18216 -0.13893,0.47503 -0.28318,0.81029 -0.28849,0.67053 -0.75085,1.52244 -1.2268,2.33991 -0.47595,0.81746 -0.96702,1.60512 -1.33015,2.19314 -0.18156,0.29403 -0.32841,0.53478 -0.43719,0.72502 -0.0544,0.0951 -0.097,0.16817 -0.14676,0.28112 -0.0249,0.0565 -0.0613,0.0922 -0.0915,0.30851 -0.008,0.0541 -0.015,0.12267 -0.006,0.22635 0.004,0.0518 0.013,0.11362 0.0331,0.18551 0.0201,0.0719 0.10508,0.24385 0.10542,0.24443 3.5e-4,5.7e-4 0.22224,0.25748 0.22272,0.25787 4.8e-4,3.9e-4 0.31203,0.17135 0.31264,0.17156 6.1e-4,2e-4 0.28813,0.0527 0.28888,0.0527 7.5e-4,2e-5 0.15292,-0.007 0.21084,-0.0176 1.11372,-0.20871 6.4049,-0.56774 8.62531,-0.52503 2.27344,0.0437 3.68329,0.30644 5.7521,0.30644 7.2911,0 13.22245,-5.93136 13.22245,-13.22245 0,-4.27051 -2.03511,-8.07492 -5.18625,-10.49393 l -0.85576,1.82728 c 2.48676,2.06116 4.06745,5.17521 4.06745,8.66665 0,6.22419 -5.02369,11.24996 -11.24789,11.24996 -1.89505,0 -3.30751,-0.26072 -5.71283,-0.30695 -1.92646,-0.0371 -4.87753,0.21076 -7.0745,0.4377 0.30299,-0.49111 0.60612,-0.97489 0.95498,-1.57407 0.49565,-0.85131 0.98468,-1.74506 1.33222,-2.55281 0.17378,-0.40388 0.31435,-0.78433 0.39842,-1.16427 0.0841,-0.37994 0.16674,-0.78153 -0.078,-1.29502 -0.69038,-1.44796 -1.06815,-3.07287 -1.06815,-4.79454 0,-1.99732 0.51797,-3.87093 1.42627,-5.49475 z m -4.71186,16.97881 c -5e-5,0 0.0172,0.003 0.0196,0.004 -0.046,0.008 -0.18426,0.006 -0.22634,0.0139 0.0562,-0.0105 0.20745,-0.0181 0.2067,-0.0181 z" /><path
         id="path820"
         style="color:#000000;display:none;fill:#000000;stroke:none;stroke-width:1.55918;stroke-opacity:1;-inkscape-stroke:none"
         d="m 159.40474,155.4148 -1.13378,-1.62574 c -0.84658,0.76974 -1.5928,1.64785 -2.21744,2.61173 l 1.28313,1.6769 c 0.55375,-0.98997 1.25233,-1.88735 2.06809,-2.66289 z" /><path
         id="path822"
         style="color:#000000;display:inline;fill:#000000;fill-opacity:0.960784;stroke:none;stroke-width:2.51219;stroke-opacity:1;-inkscape-stroke:none"
         d="m 167.15827,150.34948 c -3.41809,0 -6.5378,1.30333 -8.88731,3.43958 l 1.13378,1.62574 c 2.01594,-1.91654 4.74436,-3.09076 7.75353,-3.09076 0.47774,0 0.94838,0.0299 1.41025,0.0873 l -0.0491,-1.99213 c -0.44763,-0.046 -0.90158,-0.0698 -1.36116,-0.0698 z" /><path
         id="path824"
         style="color:#000000;display:none;fill:#000000;stroke:none;stroke-width:1.55918;stroke-opacity:1;-inkscape-stroke:none"
         d="m 168.51943,150.41924 0.0491,1.99213 c 2.18007,0.27125 4.16409,1.1632 5.77019,2.49442 l 0.85576,-1.82728 c -1.88969,-1.45064 -4.18065,-2.403 -6.67504,-2.65927 z" /></g><g
       id="g836"
       inkscape:label="Typeface"
       transform="matrix(2.040026,0,0,2.040026,-206.11671,-474.96189)"
       inkscape:export-filename="RingsLogo-small.png"
       inkscape:export-xdpi="150"
       inkscape:export-ydpi="150"
       style="fill:#000000;stroke-width:0.49019"><text
         xml:space="preserve"
         style="font-style:normal;font-variant:normal;font-weight:normal;font-stretch:normal;font-size:7.614px;font-family:Dosis;-inkscape-font-specification:'Dosis, @wght=400';font-variant-ligatures:normal;font-variant-caps:normal;font-variant-numeric:normal;font-variant-east-asian:normal;font-variation-settings:'wght' 400;text-align:center;letter-spacing:1.651px;text-anchor:middle;fill:#000000;fill-opacity:1;stroke:none;stroke-width:0.098038;stroke-linecap:square;stroke-linejoin:round;stroke-miterlimit:0;stroke-opacity:1;paint-order:markers fill stroke"
         x="53.15477"
         y="-31.433683"
         id="text830"
         inkscape:label="Text"
         transform="matrix(1.0000115,0,0,0.9999885,109.29309,303.89285)"><tspan
           sodipodi:role="line"
           id="tspan828"
           x="53.98027"
           y="-31.433683"
           style="fill:#000000;fill-opacity:1;stroke:none;stroke-width:0.098038;stroke-opacity:1">Time</tspan></text><text
         xml:space="preserve"
         style="font-style:normal;font-variant:normal;font-weight:normal;font-stretch:normal;font-size:18.4966px;font-family:Dosis;-inkscape-font-specification:'Dosis, Normal';font-variant-ligatures:normal;font-variant-caps:normal;font-variant-numeric:normal;font-variant-east-asian:normal;text-align:center;text-anchor:middle;fill:#000000;fill-opacity:1;stroke:none;stroke-width:0.0980385;stroke-linecap:square;stroke-linejoin:round;stroke-miterlimit:0;stroke-opacity:1;paint-order:markers fill stroke"
         x="49.986324"
         y="-37.488861"
         id="text834"
         inkscape:label="Text"
         transform="matrix(1.0000079,0,0,0.9999921,109.29309,303.89285)"><tspan
           sodipodi:role="line"
           id="tspan832"
           style="font-style:normal;font-variant:normal;font-weight:normal;font-stretch:normal;font-size:18.4966px;font-family:Dosis;-inkscape-font-specification:'Dosis, Normal';font-variant-ligatures:normal;font-variant-caps:normal;font-variant-numeric:normal;font-variant-east-asian:normal;fill:#000000;fill-opacity:1;stroke:none;stroke-width:0.0980385;stroke-opacity:1"
           x="49.986324"
           y="-37.488861">Family</tspan></text></g></g></svg>
